<svg xmlns="http://www.w3.org/2000/svg" width="419.73" height="457.53"><path d="m141.73 226.77 28.35 28.35 28.35 56.7h-28.35l-28.35-28.35z" style="fill:#ecc173;fill-opacity:1;fill-rule:nonzero;stroke:none" transform="matrix(1.3333 0 0 -1.3333 20.9 436.64)"/><path d="m170.08 255.12 28.35 56.7 28.34-28.35h-28.34z" style="fill:#e07a3e;fill-opacity:1;fill-rule:nonzero;stroke:none" transform="matrix(1.3333 0 0 -1.3333 20.9 436.64)"/><path d="m170.08 255.12 113.39-56.7-28.35 56.7-28.35 28.35h-28.34z" style="fill:#e7a953;fill-opacity:1;fill-rule:nonzero;stroke:none" transform="matrix(1.3333 0 0 -1.3333 20.9 436.64)"/><path d="m170.08 255.12 113.39-113.39v56.7z" style="fill:#e9bb63;fill-opacity:1;fill-rule:nonzero;stroke:none" transform="matrix(1.3333 0 0 -1.3333 20.9 436.64)"/><path d="m226.77 198.43 56.7-56.7h-28.35V85.04l-28.35 85.04z" style="fill:#d8a053;fill-opacity:1;fill-rule:nonzero;stroke:none" transform="matrix(1.3333 0 0 -1.3333 20.9 436.64)"/><path d="m226.77 170.08-28.34-28.35 56.7-56.69Z" style="fill:#d96c32;fill-opacity:1;fill-rule:nonzero;stroke:none" transform="matrix(1.3333 0 0 -1.3333 20.9 436.64)"/><path d="m255.12 85.04-56.7-56.7 28.35 56.7v28.35z" style="fill:#c55325;fill-opacity:1;fill-rule:nonzero;stroke:none" transform="matrix(1.3333 0 0 -1.3333 20.9 436.64)"/><path d="m198.43 141.73 28.34-28.34V85.04l-28.34-56.7Z" style="fill:#e07a3e;fill-opacity:1;fill-rule:nonzero;stroke:none" transform="matrix(1.3333 0 0 -1.3333 20.9 436.64)"/><path d="M198.43 113.39v-56.7L141.73 0Z" style="fill:#ebb04c;fill-opacity:1;fill-rule:nonzero;stroke:none" transform="matrix(1.3333 0 0 -1.3333 20.9 436.64)"/><path d="m198.43 113.39-56.7-56.7V0Z" style="fill:#b85d19;fill-opacity:1;fill-rule:nonzero;stroke:none" transform="matrix(1.3333 0 0 -1.3333 20.9 436.64)"/><path d="m141.73 226.77-28.34 28.35-28.35 56.7h28.35l28.34-28.35z" style="fill:#5a7191;fill-opacity:1;fill-rule:nonzero;stroke:none" transform="matrix(1.3333 0 0 -1.3333 20.9 436.64)"/><path d="m113.39 255.12-28.35 56.7-28.35-28.35h28.35z" style="fill:#6484ac;fill-opacity:1;fill-rule:nonzero;stroke:none" transform="matrix(1.3333 0 0 -1.3333 20.9 436.64)"/><path d="m113.39 255.12-28.35 28.35H56.69l-28.34-28.35L0 198.42Z" style="fill:#67628c;fill-opacity:1;fill-rule:nonzero;stroke:none" transform="matrix(1.3333 0 0 -1.3333 20.9 436.64)"/><path d="M113.39 255.12 0 198.42v-56.69z" style="fill:#466faa;fill-opacity:1;fill-rule:nonzero;stroke:none" transform="matrix(1.3333 0 0 -1.3333 20.9 436.64)"/><path d="m0 141.73 56.7 56.7v-28.35L28.34 85.04v56.7z" style="fill:#29467b;fill-opacity:1;fill-rule:nonzero;stroke:none" transform="matrix(1.3333 0 0 -1.3333 20.9 436.64)"/><path d="m28.35 85.04 28.34 85.04 28.35-28.35z" style="fill:#716aa3;fill-opacity:1;fill-rule:nonzero;stroke:none" transform="matrix(1.3333 0 0 -1.3333 20.9 436.64)"/><path d="m28.35 85.04 28.34 28.35V85.04l28.35-56.7Z" style="fill:#5a537c;fill-opacity:1;fill-rule:nonzero;stroke:none" transform="matrix(1.3333 0 0 -1.3333 20.9 436.64)"/><path d="m56.7 113.39 28.34 28.34V28.35L56.69 85.04z" style="fill:#425e8d;fill-opacity:1;fill-rule:nonzero;stroke:none" transform="matrix(1.3333 0 0 -1.3333 20.9 436.64)"/><path d="M85.04 56.7v56.69L141.74 0Z" style="fill:#6792bf;fill-opacity:1;fill-rule:nonzero;stroke:none" transform="matrix(1.3333 0 0 -1.3333 20.9 436.64)"/><path d="m85.04 113.39 56.7-56.7V0Z" style="fill:#3e496f;fill-opacity:1;fill-rule:nonzero;stroke:none" transform="matrix(1.3333 0 0 -1.3333 20.9 436.64)"/><path d="m141.73 56.7-56.69 56.69 28.35 56.7v-28.36l28.34-28.34 28.35 28.34v28.35l28.35-56.7z" style="fill:#d9a05b;fill-opacity:1;fill-rule:nonzero;stroke:none" transform="matrix(1.3333 0 0 -1.3333 20.9 436.64)"/><path d="m141.73 226.77-28.34-56.69v-28.35h56.7v28.35z" style="fill:#f4b41a;fill-opacity:1;fill-rule:nonzero;stroke:none" transform="matrix(1.3333 0 0 -1.3333 20.9 436.64)"/><path d="m141.73 226.77-28.34 28.35-56.7-56.7v-28.34l28.35-28.35V113.4l28.35 56.7z" style="fill:#c88a12;fill-opacity:1;fill-rule:nonzero;stroke:none" transform="matrix(1.3333 0 0 -1.3333 20.9 436.64)"/><path d="m141.73 226.77 28.35 28.35 56.7-56.7v-28.34l-28.35-28.35V113.4l-28.35 56.7z" style="fill:#e29518;fill-opacity:1;fill-rule:nonzero;stroke:none" transform="matrix(1.3333 0 0 -1.3333 20.9 436.64)"/><path d="m141.73 113.39-28.34 28.34h56.7z" style="fill:#2e2f2f;fill-opacity:1;fill-rule:nonzero;stroke:none" transform="matrix(1.3333 0 0 -1.3333 20.9 436.64)"/><path d="M1.5 0a1.5 1.5 0 1 1-3 0 1.5 1.5 0 0 1 3 0m0 28.35a1.5 1.5 0 1 1-3 0 1.5 1.5 0 0 1 3 0m0 28.35a1.5 1.5 0 1 1-3 0 1.5 1.5 0 0 1 3 0m0 28.34a1.5 1.5 0 1 1-3 0 1.5 1.5 0 0 1 3 0m0 28.35a1.5 1.5 0 1 1-3 0 1.5 1.5 0 0 1 3 0m0 28.34a1.5 1.5 0 1 1-3 0 1.5 1.5 0 0 1 3 0m0 28.35a1.5 1.5 0 1 1-3 0 1.5 1.5 0 0 1 3 0m0 28.35a1.5 1.5 0 1 1-3 0 1.5 1.5 0 0 1 3 0m0 28.34a1.5 1.5 0 1 1-3 0 1.5 1.5 0 0 1 3 0m0 28.35a1.5 1.5 0 1 1-3 0 1.5 1.5 0 0 1 3 0m0 28.35a1.5 1.5 0 1 1-3 0 1.5 1.5 0 0 1 3 0m0 28.34a1.5 1.5 0 1 1-3 0 1.5 1.5 0 0 1 3 0M29.84 0a1.5 1.5 0 1 1-2.99 0 1.5 1.5 0 0 1 3 0m-.01 28.35a1.5 1.5 0 1 1-2.99 0 1.5 1.5 0 0 1 3 0m-.01 28.35a1.5 1.5 0 1 1-2.99 0 1.5 1.5 0 0 1 3 0m-.01 28.34a1.5 1.5 0 1 1-2.99 0 1.5 1.5 0 0 1 3 0m-.01 28.35a1.5 1.5 0 1 1-2.99 0 1.5 1.5 0 0 1 3 0m-.01 28.34a1.5 1.5 0 1 1-2.99 0 1.5 1.5 0 0 1 3 0m-.01 28.35a1.5 1.5 0 1 1-2.99 0 1.5 1.5 0 0 1 3 0m-.01 28.35a1.5 1.5 0 1 1-2.99 0 1.5 1.5 0 0 1 3 0m-.01 28.34a1.5 1.5 0 1 1-2.99 0 1.5 1.5 0 0 1 3 0m-.01 28.35a1.5 1.5 0 1 1-2.99 0 1.5 1.5 0 0 1 3 0m-.01 28.35a1.5 1.5 0 1 1-2.99 0 1.5 1.5 0 0 1 3 0m-.01 28.34a1.5 1.5 0 1 1-2.99 0 1.5 1.5 0 0 1 3 0M58.19 0a1.5 1.5 0 1 1-3 0 1.5 1.5 0 0 1 3 0m0 28.35a1.5 1.5 0 1 1-3 0 1.5 1.5 0 0 1 3 0m0 28.35a1.5 1.5 0 1 1-3 0 1.5 1.5 0 0 1 3 0m0 28.34a1.5 1.5 0 1 1-3 0 1.5 1.5 0 0 1 3 0m0 28.35a1.5 1.5 0 1 1-3 0 1.5 1.5 0 0 1 3 0m0 28.34a1.5 1.5 0 1 1-3 0 1.5 1.5 0 0 1 3 0m0 28.35a1.5 1.5 0 1 1-3 0 1.5 1.5 0 0 1 3 0m0 28.35a1.5 1.5 0 1 1-3 0 1.5 1.5 0 0 1 3 0m0 28.34a1.5 1.5 0 1 1-3 0 1.5 1.5 0 0 1 3 0m0 28.35a1.5 1.5 0 1 1-3 0 1.5 1.5 0 0 1 3 0m0 28.35a1.5 1.5 0 1 1-3 0 1.5 1.5 0 0 1 3 0m0 28.34a1.5 1.5 0 1 1-3 0 1.5 1.5 0 0 1 3 0M86.53 0a1.5 1.5 0 1 1-2.98 0 1.5 1.5 0 0 1 2.98 0m0 28.35a1.5 1.5 0 1 1-2.98 0 1.5 1.5 0 0 1 2.98 0m0 28.35a1.5 1.5 0 1 1-2.98 0 1.5 1.5 0 0 1 2.98 0m0 28.34a1.5 1.5 0 1 1-2.98 0 1.5 1.5 0 0 1 2.98 0m0 28.35a1.5 1.5 0 1 1-2.98 0 1.5 1.5 0 0 1 2.98 0m0 28.34a1.5 1.5 0 1 1-2.98 0 1.5 1.5 0 0 1 2.98 0m0 28.35a1.5 1.5 0 1 1-2.98 0 1.5 1.5 0 0 1 2.98 0m0 28.35a1.5 1.5 0 1 1-2.98 0 1.5 1.5 0 0 1 2.98 0m0 28.34a1.5 1.5 0 1 1-2.98 0 1.5 1.5 0 0 1 2.98 0m0 28.35a1.5 1.5 0 1 1-2.98 0 1.5 1.5 0 0 1 2.98 0m0 28.35a1.5 1.5 0 1 1-2.98 0 1.5 1.5 0 0 1 2.98 0m0 28.34a1.5 1.5 0 1 1-2.98 0 1.5 1.5 0 0 1 2.98 0M114.88 0a1.5 1.5 0 1 1-2.99 0 1.5 1.5 0 0 1 3 0m-.01 28.35a1.5 1.5 0 1 1-2.99 0 1.5 1.5 0 0 1 3 0m-.01 28.35a1.5 1.5 0 1 1-2.99 0 1.5 1.5 0 0 1 3 0m-.01 28.34a1.5 1.5 0 1 1-2.99 0 1.5 1.5 0 0 1 3 0m-.01 28.35a1.5 1.5 0 1 1-2.99 0 1.5 1.5 0 0 1 3 0m-.01 28.34a1.5 1.5 0 1 1-2.99 0 1.5 1.5 0 0 1 3 0m-.01 28.35a1.5 1.5 0 1 1-2.99 0 1.5 1.5 0 0 1 3 0m-.01 28.35a1.5 1.5 0 1 1-2.99 0 1.5 1.5 0 0 1 3 0m-.01 28.34a1.5 1.5 0 1 1-2.99 0 1.5 1.5 0 0 1 3 0m-.01 28.35a1.5 1.5 0 1 1-2.99 0 1.5 1.5 0 0 1 3 0m-.01 28.35a1.5 1.5 0 1 1-2.99 0 1.5 1.5 0 0 1 3 0m-.01 28.34a1.5 1.5 0 1 1-2.99 0 1.5 1.5 0 0 1 3 0M143.23 0a1.5 1.5 0 1 1-2.99 0 1.5 1.5 0 0 1 2.99 0m0 28.35a1.5 1.5 0 1 1-2.99 0 1.5 1.5 0 0 1 2.99 0m0 28.35a1.5 1.5 0 1 1-2.99 0 1.5 1.5 0 0 1 2.99 0m0 28.34a1.5 1.5 0 1 1-2.99 0 1.5 1.5 0 0 1 2.99 0m0 28.35a1.5 1.5 0 1 1-2.99 0 1.5 1.5 0 0 1 2.99 0m0 28.34a1.5 1.5 0 1 1-2.99 0 1.5 1.5 0 0 1 2.99 0m0 28.35a1.5 1.5 0 1 1-2.99 0 1.5 1.5 0 0 1 2.99 0m0 28.35a1.5 1.5 0 1 1-2.99 0 1.5 1.5 0 0 1 2.99 0m0 28.34a1.5 1.5 0 1 1-2.99 0 1.5 1.5 0 0 1 2.99 0m0 28.35a1.5 1.5 0 1 1-2.99 0 1.5 1.5 0 0 1 2.99 0m0 28.35a1.5 1.5 0 1 1-2.99 0 1.5 1.5 0 0 1 2.99 0m0 28.34a1.5 1.5 0 1 1-2.99 0 1.5 1.5 0 0 1 2.99 0M171.58 0a1.5 1.5 0 1 1-3 0 1.5 1.5 0 0 1 3 0m0 28.35a1.5 1.5 0 1 1-3 0 1.5 1.5 0 0 1 3 0m0 28.35a1.5 1.5 0 1 1-3 0 1.5 1.5 0 0 1 3 0m0 28.34a1.5 1.5 0 1 1-3 0 1.5 1.5 0 0 1 3 0m0 28.35a1.5 1.5 0 1 1-3 0 1.5 1.5 0 0 1 3 0m0 28.34a1.5 1.5 0 1 1-3 0 1.5 1.5 0 0 1 3 0m0 28.35a1.5 1.5 0 1 1-3 0 1.5 1.5 0 0 1 3 0m0 28.35a1.5 1.5 0 1 1-3 0 1.5 1.5 0 0 1 3 0m0 28.34a1.5 1.5 0 1 1-3 0 1.5 1.5 0 0 1 3 0m0 28.35a1.5 1.5 0 1 1-3 0 1.5 1.5 0 0 1 3 0m0 28.35a1.5 1.5 0 1 1-3 0 1.5 1.5 0 0 1 3 0m0 28.34a1.5 1.5 0 1 1-3 0 1.5 1.5 0 0 1 3 0M199.92 0a1.5 1.5 0 1 1-2.99 0 1.5 1.5 0 0 1 3 0m-.01 28.35a1.5 1.5 0 1 1-2.99 0 1.5 1.5 0 0 1 3 0m-.01 28.35a1.5 1.5 0 1 1-2.99 0 1.5 1.5 0 0 1 3 0m-.01 28.34a1.5 1.5 0 1 1-2.99 0 1.5 1.5 0 0 1 3 0m-.01 28.35a1.5 1.5 0 1 1-2.99 0 1.5 1.5 0 0 1 3 0m-.01 28.34a1.5 1.5 0 1 1-2.99 0 1.5 1.5 0 0 1 3 0m-.01 28.35a1.5 1.5 0 1 1-2.99 0 1.5 1.5 0 0 1 3 0m-.01 28.35a1.5 1.5 0 1 1-2.99 0 1.5 1.5 0 0 1 3 0m-.01 28.34a1.5 1.5 0 1 1-2.99 0 1.5 1.5 0 0 1 3 0m-.01 28.35a1.5 1.5 0 1 1-2.99 0 1.5 1.5 0 0 1 3 0m-.01 28.35a1.5 1.5 0 1 1-2.99 0 1.5 1.5 0 0 1 3 0m-.01 28.34a1.5 1.5 0 1 1-2.99 0 1.5 1.5 0 0 1 3 0M228.27 0a1.5 1.5 0 1 1-2.99 0 1.5 1.5 0 0 1 2.99 0m0 28.35a1.5 1.5 0 1 1-2.99 0 1.5 1.5 0 0 1 2.99 0m0 28.35a1.5 1.5 0 1 1-2.99 0 1.5 1.5 0 0 1 2.99 0m0 28.34a1.5 1.5 0 1 1-2.99 0 1.5 1.5 0 0 1 2.99 0m0 28.35a1.5 1.5 0 1 1-2.99 0 1.5 1.5 0 0 1 2.99 0m0 28.34a1.5 1.5 0 1 1-2.99 0 1.5 1.5 0 0 1 2.99 0m0 28.35a1.5 1.5 0 1 1-2.99 0 1.5 1.5 0 0 1 2.99 0m0 28.35a1.5 1.5 0 1 1-2.99 0 1.5 1.5 0 0 1 2.99 0m0 28.34a1.5 1.5 0 1 1-2.99 0 1.5 1.5 0 0 1 2.99 0m0 28.35a1.5 1.5 0 1 1-2.99 0 1.5 1.5 0 0 1 2.99 0m0 28.35a1.5 1.5 0 1 1-2.99 0 1.5 1.5 0 0 1 2.99 0m0 28.34a1.5 1.5 0 1 1-2.99 0 1.5 1.5 0 0 1 2.99 0M256.62 0a1.5 1.5 0 1 1-3 0 1.5 1.5 0 0 1 3 0m0 28.35a1.5 1.5 0 1 1-3 0 1.5 1.5 0 0 1 3 0m0 28.35a1.5 1.5 0 1 1-3 0 1.5 1.5 0 0 1 3 0m0 28.34a1.5 1.5 0 1 1-3 0 1.5 1.5 0 0 1 3 0m0 28.35a1.5 1.5 0 1 1-3 0 1.5 1.5 0 0 1 3 0m0 28.34a1.5 1.5 0 1 1-3 0 1.5 1.5 0 0 1 3 0m0 28.35a1.5 1.5 0 1 1-3 0 1.5 1.5 0 0 1 3 0m0 28.35a1.5 1.5 0 1 1-3 0 1.5 1.5 0 0 1 3 0m0 28.34a1.5 1.5 0 1 1-3 0 1.5 1.5 0 0 1 3 0m0 28.35a1.5 1.5 0 1 1-3 0 1.5 1.5 0 0 1 3 0m0 28.35a1.5 1.5 0 1 1-3 0 1.5 1.5 0 0 1 3 0m0 28.34a1.5 1.5 0 1 1-3 0 1.5 1.5 0 0 1 3 0M284.96 0a1.5 1.5 0 1 1-2.99 0 1.5 1.5 0 0 1 3 0m-.01 28.35a1.5 1.5 0 1 1-2.99 0 1.5 1.5 0 0 1 3 0m-.01 28.35a1.5 1.5 0 1 1-2.99 0 1.5 1.5 0 0 1 3 0m-.01 28.34a1.5 1.5 0 1 1-2.99 0 1.5 1.5 0 0 1 3 0m-.01 28.35a1.5 1.5 0 1 1-2.99 0 1.5 1.5 0 0 1 3 0m-.01 28.34a1.5 1.5 0 1 1-2.99 0 1.5 1.5 0 0 1 3 0m-.01 28.35a1.5 1.5 0 1 1-2.99 0 1.5 1.5 0 0 1 3 0m-.01 28.35a1.5 1.5 0 1 1-2.99 0 1.5 1.5 0 0 1 3 0m-.01 28.34a1.5 1.5 0 1 1-2.99 0 1.5 1.5 0 0 1 3 0m-.01 28.35a1.5 1.5 0 1 1-2.99 0 1.5 1.5 0 0 1 3 0m-.01 28.35a1.5 1.5 0 1 1-2.99 0 1.5 1.5 0 0 1 3 0m-.01 28.34a1.5 1.5 0 1 1-2.99 0 1.5 1.5 0 0 1 3 0" style="fill:#5b5c56;fill-opacity:1;fill-rule:nonzero;stroke:none" transform="matrix(1.3333 0 0 -1.3333 20.9 436.64)"/><path d="m141.73 0 56.7 56.7V28.34l56.7 56.69v56.7h28.34v56.69l-28.35 56.7-56.7 56.68h-28.34l-28.35-28.34-28.34 28.34H85.04l-56.7-56.69L0 198.42v-56.69h28.35V85.04l56.69-56.7V56.7z" style="fill:none;stroke:#000;stroke-width:1.19553;stroke-linecap:round;stroke-linejoin:round;stroke-miterlimit:10;stroke-dasharray:none;stroke-opacity:1" transform="matrix(1.3333 0 0 -1.3333 20.9 436.64)"/><path d="m141.73 56.7 56.7 56.69v28.34l28.34 28.35v28.35l-56.69 56.7-28.35-28.36-28.34 28.35-56.7-56.7v-28.34l28.35-28.35V113.4z" style="fill:none;stroke:#000;stroke-width:1.19553;stroke-linecap:round;stroke-linejoin:round;stroke-miterlimit:10;stroke-dasharray:none;stroke-opacity:1" transform="matrix(1.3333 0 0 -1.3333 20.9 436.64)"/><path d="M141.73 85.04v28.35l28.35 28.34h-56.7l28.35-28.34m-28.34 28.34v28.35m56.69-28.35v28.35m-56.69-85.04h56.7m-85.05 28.35 28.35 56.7m85.04-56.7-28.35 56.7M141.73 0v56.7m0-56.7 56.7 113.39m0-56.69v56.69m0-85.04 28.34 56.69v28.35m-28.34 28.34 56.7-56.69-28.36 85.04m0 28.35 56.7-56.7m0 56.7-113.39 56.7 28.35 28.34h28.34m-56.69-28.35 28.35 56.7m-56.7-85.05v56.7M85.04 56.7v56.69M141.73 0 85.04 113.39m0-85.04L56.69 85.04v28.35" style="fill:none;stroke:#000;stroke-width:1.19553;stroke-linecap:round;stroke-linejoin:round;stroke-miterlimit:10;stroke-dasharray:none;stroke-opacity:1" transform="matrix(1.3333 0 0 -1.3333 20.9 436.64)"/><path d="m85.04 141.73-56.7-56.69 28.35 85.04M0 141.73l56.7 56.7m-56.7 0 113.39 56.7-28.35 28.34H56.69m56.7-28.35-28.35 56.7" style="fill:none;stroke:#000;stroke-width:1.19553;stroke-linecap:round;stroke-linejoin:round;stroke-miterlimit:10;stroke-dasharray:none;stroke-opacity:1" transform="matrix(1.3333 0 0 -1.3333 20.9 436.64)"/><path d="M118.37 198.43a4.98 4.98 0 1 1-9.96 0 4.98 4.98 0 0 1 9.96 0m56.69 0a4.98 4.98 0 1 1-9.96 0 4.98 4.98 0 0 1 9.96 0M1.5 141.73a1.5 1.5 0 1 1-3 0 1.5 1.5 0 0 1 3 0m0 28.35a1.5 1.5 0 1 1-3 0 1.5 1.5 0 0 1 3 0m0 28.35a1.5 1.5 0 1 1-3 0 1.5 1.5 0 0 1 3 0M29.84 85.04a1.5 1.5 0 1 1-2.99 0 1.5 1.5 0 0 1 3 0m-.01 28.35a1.5 1.5 0 1 1-2.99 0 1.5 1.5 0 0 1 3 0m-.01 28.34a1.5 1.5 0 1 1-2.99 0 1.5 1.5 0 0 1 3 0m-.01 28.35a1.5 1.5 0 1 1-2.99 0 1.5 1.5 0 0 1 3 0m-.01 85.04a1.5 1.5 0 1 1-2.99 0 1.5 1.5 0 0 1 3 0M58.19 56.7a1.5 1.5 0 1 1-3 0 1.5 1.5 0 0 1 3 0m0 28.34a1.5 1.5 0 1 1-3 0 1.5 1.5 0 0 1 3 0m0 28.35a1.5 1.5 0 1 1-3 0 1.5 1.5 0 0 1 3 0m0 56.69a1.5 1.5 0 1 1-3 0 1.5 1.5 0 0 1 3 0m0 28.35a1.5 1.5 0 1 1-3 0 1.5 1.5 0 0 1 3 0m0 28.34a1.5 1.5 0 1 1-3 0 1.5 1.5 0 0 1 3 0m0 56.7a1.5 1.5 0 1 1-3 0 1.5 1.5 0 0 1 3 0M86.53 28.35a1.5 1.5 0 1 1-2.98 0 1.5 1.5 0 0 1 2.98 0m0 28.35a1.5 1.5 0 1 1-2.98 0 1.5 1.5 0 0 1 2.98 0m0 28.34a1.5 1.5 0 1 1-2.98 0 1.5 1.5 0 0 1 2.98 0m0 28.35a1.5 1.5 0 1 1-2.98 0 1.5 1.5 0 0 1 2.98 0m0 28.34a1.5 1.5 0 1 1-2.98 0 1.5 1.5 0 0 1 2.98 0m0 85.04a1.5 1.5 0 1 1-2.98 0 1.5 1.5 0 0 1 2.98 0m0 56.7a1.5 1.5 0 1 1-2.98 0 1.5 1.5 0 0 1 2.98 0m0 28.34a1.5 1.5 0 1 1-2.98 0 1.5 1.5 0 0 1 2.98 0m28.35-283.46a1.5 1.5 0 1 1-2.99 0 1.5 1.5 0 0 1 3 0m-.01 28.35a1.5 1.5 0 1 1-2.99 0 1.5 1.5 0 0 1 3 0m-.01 28.34a1.5 1.5 0 1 1-2.99 0 1.5 1.5 0 0 1 3 0m-.01 56.69a1.5 1.5 0 1 1-2.99 0 1.5 1.5 0 0 1 3 0m-.01 28.35a1.5 1.5 0 1 1-2.99 0 1.5 1.5 0 0 1 3 0m-.01 85.04a1.5 1.5 0 1 1-2.99 0 1.5 1.5 0 0 1 3 0m-.01 56.69a1.5 1.5 0 1 1-2.99 0 1.5 1.5 0 0 1 3 0M143.23 0a1.5 1.5 0 1 1-2.99 0 1.5 1.5 0 0 1 2.99 0m0 28.35a1.5 1.5 0 1 1-2.99 0 1.5 1.5 0 0 1 2.99 0m0 28.35a1.5 1.5 0 1 1-2.99 0 1.5 1.5 0 0 1 2.99 0m0 28.34a1.5 1.5 0 1 1-2.99 0 1.5 1.5 0 0 1 2.99 0m0 28.35a1.5 1.5 0 1 1-2.99 0 1.5 1.5 0 0 1 2.99 0m0 28.34a1.5 1.5 0 1 1-2.99 0 1.5 1.5 0 0 1 2.99 0m0 85.04a1.5 1.5 0 1 1-2.99 0 1.5 1.5 0 0 1 2.99 0m0 28.35a1.5 1.5 0 1 1-2.99 0 1.5 1.5 0 0 1 2.99 0m0 28.35a1.5 1.5 0 1 1-2.99 0 1.5 1.5 0 0 1 2.99 0m28.35-255.12a1.5 1.5 0 1 1-3 0 1.5 1.5 0 0 1 3 0m0 28.35a1.5 1.5 0 1 1-3 0 1.5 1.5 0 0 1 3 0m0 28.34a1.5 1.5 0 1 1-3 0 1.5 1.5 0 0 1 3 0m0 56.69a1.5 1.5 0 1 1-3 0 1.5 1.5 0 0 1 3 0m0 28.35a1.5 1.5 0 1 1-3 0 1.5 1.5 0 0 1 3 0m0 85.04a1.5 1.5 0 1 1-3 0 1.5 1.5 0 0 1 3 0m0 56.69a1.5 1.5 0 1 1-3 0 1.5 1.5 0 0 1 3 0m28.34-283.46a1.5 1.5 0 1 1-2.99 0 1.5 1.5 0 0 1 3 0m-.01 28.35a1.5 1.5 0 1 1-2.99 0 1.5 1.5 0 0 1 3 0m-.01 28.34a1.5 1.5 0 1 1-2.99 0 1.5 1.5 0 0 1 3 0m-.01 28.35a1.5 1.5 0 1 1-2.99 0 1.5 1.5 0 0 1 3 0m-.01 28.34a1.5 1.5 0 1 1-2.99 0 1.5 1.5 0 0 1 3 0m-.01 85.04a1.5 1.5 0 1 1-2.99 0 1.5 1.5 0 0 1 3 0m-.01 56.7a1.5 1.5 0 1 1-2.99 0 1.5 1.5 0 0 1 3 0m-.01 28.34a1.5 1.5 0 1 1-2.99 0 1.5 1.5 0 0 1 3 0M228.27 56.7a1.5 1.5 0 1 1-2.99 0 1.5 1.5 0 0 1 2.99 0m0 28.34a1.5 1.5 0 1 1-2.99 0 1.5 1.5 0 0 1 2.99 0m0 28.35a1.5 1.5 0 1 1-2.99 0 1.5 1.5 0 0 1 2.99 0m0 56.69a1.5 1.5 0 1 1-2.99 0 1.5 1.5 0 0 1 2.99 0m0 28.35a1.5 1.5 0 1 1-2.99 0 1.5 1.5 0 0 1 2.99 0m0 28.34a1.5 1.5 0 1 1-2.99 0 1.5 1.5 0 0 1 2.99 0m0 56.7a1.5 1.5 0 1 1-2.99 0 1.5 1.5 0 0 1 2.99 0m28.35-198.43a1.5 1.5 0 1 1-3 0 1.5 1.5 0 0 1 3 0m0 28.35a1.5 1.5 0 1 1-3 0 1.5 1.5 0 0 1 3 0m0 28.34a1.5 1.5 0 1 1-3 0 1.5 1.5 0 0 1 3 0m0 28.35a1.5 1.5 0 1 1-3 0 1.5 1.5 0 0 1 3 0m0 85.04a1.5 1.5 0 1 1-3 0 1.5 1.5 0 0 1 3 0m28.34-113.39a1.5 1.5 0 1 1-2.99 0 1.5 1.5 0 0 1 3 0m-.01 28.35a1.5 1.5 0 1 1-2.99 0 1.5 1.5 0 0 1 3 0m-.01 28.35a1.5 1.5 0 1 1-2.99 0 1.5 1.5 0 0 1 3 0" style="fill:#000;fill-opacity:1;fill-rule:nonzero;stroke:none" transform="matrix(1.3333 0 0 -1.3333 20.9 436.64)"/></svg>