<?xml version="1.0" encoding="UTF-8" standalone="no"?>
<!-- Created with Inkscape (http://www.inkscape.org/) -->

<svg
   version="1.1"
   id="svg1"
   width="419.73334"
   height="457.52802"
   viewBox="0 0 419.73334 457.52802"
   sodipodi:docname="logo.svg"
   inkscape:version="1.4.3 (1:1.4.3+202512261035+0d15f75042)"
   xmlns:inkscape="http://www.inkscape.org/namespaces/inkscape"
   xmlns:sodipodi="http://sodipodi.sourceforge.net/DTD/sodipodi-0.dtd"
   xmlns="http://www.w3.org/2000/svg"
   xmlns:svg="http://www.w3.org/2000/svg">
  <defs
     id="defs1" />
  <sodipodi:namedview
     id="namedview1"
     pagecolor="#ffffff"
     bordercolor="#000000"
     borderopacity="0.25"
     inkscape:showpageshadow="2"
     inkscape:pageopacity="0.0"
     inkscape:pagecheckerboard="0"
     inkscape:deskcolor="#d1d1d1"
     inkscape:zoom="1.9321221"
     inkscape:cx="209.61408"
     inkscape:cy="228.76401"
     inkscape:window-width="1854"
     inkscape:window-height="1131"
     inkscape:window-x="0"
     inkscape:window-y="0"
     inkscape:window-maximized="1"
     inkscape:current-layer="g1">
    <inkscape:page
       x="0"
       y="0"
       inkscape:label="1"
       id="page1"
       width="419.73334"
       height="457.52802"
       margin="0"
       bleed="0" />
  </sodipodi:namedview>
  <g
     id="g1"
     inkscape:groupmode="layer"
     inkscape:label="1">
    <path
       id="path1"
       d="m 141.73404,226.77448 28.34682,28.3468 28.3468,56.69362 h -28.3468 l -28.34682,-28.3468 z"
       style="fill:#ecc173;fill-opacity:1;fill-rule:nonzero;stroke:none"
       transform="matrix(1.3333333,0,0,-1.3333333,20.890667,436.63733)" />
    <path
       id="path2"
       d="m 170.08086,255.12128 28.3468,56.69362 28.34682,-28.3468 h -28.34682 z"
       style="fill:#e07a3e;fill-opacity:1;fill-rule:nonzero;stroke:none"
       transform="matrix(1.3333333,0,0,-1.3333333,20.890667,436.63733)" />
    <path
       id="path3"
       d="m 170.08086,255.12128 113.38724,-56.69362 -28.34682,56.69362 -28.3468,28.34682 h -28.34682 z"
       style="fill:#e7a953;fill-opacity:1;fill-rule:nonzero;stroke:none"
       transform="matrix(1.3333333,0,0,-1.3333333,20.890667,436.63733)" />
    <path
       id="path4"
       d="M 170.08086,255.12128 283.4681,141.73404 v 56.69362 z"
       style="fill:#e9bb63;fill-opacity:1;fill-rule:nonzero;stroke:none"
       transform="matrix(1.3333333,0,0,-1.3333333,20.890667,436.63733)" />
    <path
       id="path5"
       d="M 226.77448,198.42766 283.4681,141.73404 H 255.12128 V 85.04042 l -28.3468,85.04044 z"
       style="fill:#d8a053;fill-opacity:1;fill-rule:nonzero;stroke:none"
       transform="matrix(1.3333333,0,0,-1.3333333,20.890667,436.63733)" />
    <path
       id="path6"
       d="M 226.77448,170.08086 198.42766,141.73404 255.12128,85.04042 Z"
       style="fill:#d96c32;fill-opacity:1;fill-rule:nonzero;stroke:none"
       transform="matrix(1.3333333,0,0,-1.3333333,20.890667,436.63733)" />
    <path
       id="path7"
       d="M 255.12128,85.04042 198.42766,28.3468 226.77448,85.04042 v 28.34682 z"
       style="fill:#c55325;fill-opacity:1;fill-rule:nonzero;stroke:none"
       transform="matrix(1.3333333,0,0,-1.3333333,20.890667,436.63733)" />
    <path
       id="path8"
       d="m 198.42766,141.73404 28.34682,-28.3468 V 85.04042 L 198.42766,28.3468 Z"
       style="fill:#e07a3e;fill-opacity:1;fill-rule:nonzero;stroke:none"
       transform="matrix(1.3333333,0,0,-1.3333333,20.890667,436.63733)" />
    <path
       id="path9"
       d="M 198.42766,113.38724 V 56.69362 L 141.73404,0 Z"
       style="fill:#ebb04c;fill-opacity:1;fill-rule:nonzero;stroke:none"
       transform="matrix(1.3333333,0,0,-1.3333333,20.890667,436.63733)" />
    <path
       id="path10"
       d="M 198.42766,113.38724 141.73404,56.69362 V 0 Z"
       style="fill:#b85d19;fill-opacity:1;fill-rule:nonzero;stroke:none"
       transform="matrix(1.3333333,0,0,-1.3333333,20.890667,436.63733)" />
    <path
       id="path11"
       d="m 141.73404,226.77448 -28.3468,28.3468 -28.34682,56.69362 h 28.34682 l 28.3468,-28.3468 z"
       style="fill:#5a7191;fill-opacity:1;fill-rule:nonzero;stroke:none"
       transform="matrix(1.3333333,0,0,-1.3333333,20.890667,436.63733)" />
    <path
       id="path12"
       d="M 113.38724,255.12128 85.04042,311.8149 56.69362,283.4681 h 28.3468 z"
       style="fill:#6484ac;fill-opacity:1;fill-rule:nonzero;stroke:none"
       transform="matrix(1.3333333,0,0,-1.3333333,20.890667,436.63733)" />
    <path
       id="path13"
       d="M 113.38724,255.12128 85.04042,283.4681 H 56.69362 L 28.3468,255.12128 0,198.42766 Z"
       style="fill:#67628c;fill-opacity:1;fill-rule:nonzero;stroke:none"
       transform="matrix(1.3333333,0,0,-1.3333333,20.890667,436.63733)" />
    <path
       id="path14"
       d="M 113.38724,255.12128 0,198.42766 v -56.69362 z"
       style="fill:#466faa;fill-opacity:1;fill-rule:nonzero;stroke:none"
       transform="matrix(1.3333333,0,0,-1.3333333,20.890667,436.63733)" />
    <path
       id="path15"
       d="m 0,141.73404 56.69362,56.69362 v -28.3468 L 28.3468,85.04042 v 56.69362 z"
       style="fill:#29467b;fill-opacity:1;fill-rule:nonzero;stroke:none"
       transform="matrix(1.3333333,0,0,-1.3333333,20.890667,436.63733)" />
    <path
       id="path16"
       d="m 28.3468,85.04042 28.34682,85.04044 28.3468,-28.34682 z"
       style="fill:#716aa3;fill-opacity:1;fill-rule:nonzero;stroke:none"
       transform="matrix(1.3333333,0,0,-1.3333333,20.890667,436.63733)" />
    <path
       id="path17"
       d="m 28.3468,85.04042 28.34682,28.34682 V 85.04042 L 85.04042,28.3468 Z"
       style="fill:#5a537c;fill-opacity:1;fill-rule:nonzero;stroke:none"
       transform="matrix(1.3333333,0,0,-1.3333333,20.890667,436.63733)" />
    <path
       id="path18"
       d="m 56.69362,113.38724 28.3468,28.3468 V 28.3468 l -28.3468,56.69362 z"
       style="fill:#425e8d;fill-opacity:1;fill-rule:nonzero;stroke:none"
       transform="matrix(1.3333333,0,0,-1.3333333,20.890667,436.63733)" />
    <path
       id="path19"
       d="m 85.04042,56.69362 v 56.69362 L 141.73404,0 Z"
       style="fill:#6792bf;fill-opacity:1;fill-rule:nonzero;stroke:none"
       transform="matrix(1.3333333,0,0,-1.3333333,20.890667,436.63733)" />
    <path
       id="path20"
       d="M 85.04042,113.38724 141.73404,56.69362 V 0 Z"
       style="fill:#3e496f;fill-opacity:1;fill-rule:nonzero;stroke:none"
       transform="matrix(1.3333333,0,0,-1.3333333,20.890667,436.63733)" />
    <path
       id="path21"
       d="m 141.73404,56.69362 -56.69362,56.69362 28.34682,56.69362 v -28.34682 l 28.3468,-28.3468 28.34682,28.3468 v 28.34682 l 28.3468,-56.69362 z"
       style="fill:#d9a05b;fill-opacity:1;fill-rule:nonzero;stroke:none"
       transform="matrix(1.3333333,0,0,-1.3333333,20.890667,436.63733)" />
    <path
       id="path22"
       d="m 141.73404,226.77448 -28.3468,-56.69362 v -28.34682 h 56.69362 v 28.34682 z"
       style="fill:#f4b41a;fill-opacity:1;fill-rule:nonzero;stroke:none"
       transform="matrix(1.3333333,0,0,-1.3333333,20.890667,436.63733)" />
    <path
       id="path23"
       d="m 141.73404,226.77448 -28.3468,28.3468 -56.69362,-56.69362 v -28.3468 l 28.3468,-28.34682 v -28.3468 l 28.34682,56.69362 z"
       style="fill:#c88a12;fill-opacity:1;fill-rule:nonzero;stroke:none"
       transform="matrix(1.3333333,0,0,-1.3333333,20.890667,436.63733)" />
    <path
       id="path24"
       d="m 141.73404,226.77448 28.34682,28.3468 56.69362,-56.69362 v -28.3468 l -28.34682,-28.34682 v -28.3468 l -28.3468,56.69362 z"
       style="fill:#e29518;fill-opacity:1;fill-rule:nonzero;stroke:none"
       transform="matrix(1.3333333,0,0,-1.3333333,20.890667,436.63733)" />
    <path
       id="path25"
       d="m 141.73404,113.38724 -28.3468,28.3468 h 56.69362 z"
       style="fill:#2e2f2f;fill-opacity:1;fill-rule:nonzero;stroke:none"
       transform="matrix(1.3333333,0,0,-1.3333333,20.890667,436.63733)" />
    <path
       id="path26"
       d="M 1.49442,0 C 1.49442,0.82533 0.82533,1.49442 0,1.49442 -0.82533,1.49442 -1.49442,0.82533 -1.49442,0 c 0,-0.82533 0.66909,-1.49442 1.49442,-1.49442 0.82533,0 1.49442,0.66909 1.49442,1.49442 z"
       style="fill:#5b5c56;fill-opacity:1;fill-rule:nonzero;stroke:none"
       transform="matrix(1.3333333,0,0,-1.3333333,20.890667,436.63733)" />
    <path
       id="path27"
       d="m 1.49442,28.3468 c 0,0.82535 -0.66909,1.49442 -1.49442,1.49442 -0.82533,0 -1.49442,-0.66907 -1.49442,-1.49442 0,-0.82535 0.66909,-1.49441 1.49442,-1.49441 0.82533,0 1.49442,0.66906 1.49442,1.49441 z"
       style="fill:#5b5c56;fill-opacity:1;fill-rule:nonzero;stroke:none"
       transform="matrix(1.3333333,0,0,-1.3333333,20.890667,436.63733)" />
    <path
       id="path28"
       d="m 1.49442,56.69362 c 0,0.82533 -0.66909,1.49441 -1.49442,1.49441 -0.82533,0 -1.49442,-0.66908 -1.49442,-1.49441 0,-0.82535 0.66909,-1.49442 1.49442,-1.49442 0.82533,0 1.49442,0.66907 1.49442,1.49442 z"
       style="fill:#5b5c56;fill-opacity:1;fill-rule:nonzero;stroke:none"
       transform="matrix(1.3333333,0,0,-1.3333333,20.890667,436.63733)" />
    <path
       id="path29"
       d="m 1.49442,85.04042 c 0,0.82535 -0.66909,1.49442 -1.49442,1.49442 -0.82533,0 -1.49442,-0.66907 -1.49442,-1.49442 0,-0.82535 0.66909,-1.49442 1.49442,-1.49442 0.82533,0 1.49442,0.66907 1.49442,1.49442 z"
       style="fill:#5b5c56;fill-opacity:1;fill-rule:nonzero;stroke:none"
       transform="matrix(1.3333333,0,0,-1.3333333,20.890667,436.63733)" />
    <path
       id="path30"
       d="m 1.49442,113.38724 c 0,0.82533 -0.66909,1.49441 -1.49442,1.49441 -0.82533,0 -1.49442,-0.66908 -1.49442,-1.49441 0,-0.82535 0.66909,-1.49442 1.49442,-1.49442 0.82533,0 1.49442,0.66907 1.49442,1.49442 z"
       style="fill:#5b5c56;fill-opacity:1;fill-rule:nonzero;stroke:none"
       transform="matrix(1.3333333,0,0,-1.3333333,20.890667,436.63733)" />
    <path
       id="path31"
       d="m 1.49442,141.73404 c 0,0.82535 -0.66909,1.49441 -1.49442,1.49441 -0.82533,0 -1.49442,-0.66906 -1.49442,-1.49441 0,-0.82535 0.66909,-1.49442 1.49442,-1.49442 0.82533,0 1.49442,0.66907 1.49442,1.49442 z"
       style="fill:#5b5c56;fill-opacity:1;fill-rule:nonzero;stroke:none"
       transform="matrix(1.3333333,0,0,-1.3333333,20.890667,436.63733)" />
    <path
       id="path32"
       d="m 1.49442,170.08086 c 0,0.82534 -0.66909,1.49441 -1.49442,1.49441 -0.82533,0 -1.49442,-0.66907 -1.49442,-1.49441 0,-0.82535 0.66909,-1.49442 1.49442,-1.49442 0.82533,0 1.49442,0.66907 1.49442,1.49442 z"
       style="fill:#5b5c56;fill-opacity:1;fill-rule:nonzero;stroke:none"
       transform="matrix(1.3333333,0,0,-1.3333333,20.890667,436.63733)" />
    <path
       id="path33"
       d="m 1.49442,198.42766 c 0,0.82534 -0.66909,1.49441 -1.49442,1.49441 -0.82533,0 -1.49442,-0.66907 -1.49442,-1.49441 0,-0.82535 0.66909,-1.49442 1.49442,-1.49442 0.82533,0 1.49442,0.66907 1.49442,1.49442 z"
       style="fill:#5b5c56;fill-opacity:1;fill-rule:nonzero;stroke:none"
       transform="matrix(1.3333333,0,0,-1.3333333,20.890667,436.63733)" />
    <path
       id="path34"
       d="m 1.49442,226.77448 c 0,0.82534 -0.66909,1.49441 -1.49442,1.49441 -0.82533,0 -1.49442,-0.66907 -1.49442,-1.49441 0,-0.82535 0.66909,-1.49442 1.49442,-1.49442 0.82533,0 1.49442,0.66907 1.49442,1.49442 z"
       style="fill:#5b5c56;fill-opacity:1;fill-rule:nonzero;stroke:none"
       transform="matrix(1.3333333,0,0,-1.3333333,20.890667,436.63733)" />
    <path
       id="path35"
       d="m 1.49442,255.12128 c 0,0.82534 -0.66909,1.49441 -1.49442,1.49441 -0.82533,0 -1.49442,-0.66907 -1.49442,-1.49441 0,-0.82535 0.66909,-1.49442 1.49442,-1.49442 0.82533,0 1.49442,0.66907 1.49442,1.49442 z"
       style="fill:#5b5c56;fill-opacity:1;fill-rule:nonzero;stroke:none"
       transform="matrix(1.3333333,0,0,-1.3333333,20.890667,436.63733)" />
    <path
       id="path36"
       d="m 1.49442,283.4681 c 0,0.82534 -0.66909,1.49441 -1.49442,1.49441 -0.82533,0 -1.49442,-0.66907 -1.49442,-1.49441 0,-0.82535 0.66909,-1.49442 1.49442,-1.49442 0.82533,0 1.49442,0.66907 1.49442,1.49442 z"
       style="fill:#5b5c56;fill-opacity:1;fill-rule:nonzero;stroke:none"
       transform="matrix(1.3333333,0,0,-1.3333333,20.890667,436.63733)" />
    <path
       id="path37"
       d="m 1.49442,311.8149 c 0,0.82534 -0.66909,1.49441 -1.49442,1.49441 -0.82533,0 -1.49442,-0.66907 -1.49442,-1.49441 0,-0.82535 0.66909,-1.49442 1.49442,-1.49442 0.82533,0 1.49442,0.66907 1.49442,1.49442 z"
       style="fill:#5b5c56;fill-opacity:1;fill-rule:nonzero;stroke:none"
       transform="matrix(1.3333333,0,0,-1.3333333,20.890667,436.63733)" />
    <path
       id="path38"
       d="m 29.84122,0 c 0,0.82533 -0.66907,1.49442 -1.49442,1.49442 -0.82535,0 -1.49441,-0.66909 -1.49441,-1.49442 0,-0.82533 0.66906,-1.49442 1.49441,-1.49442 0.82535,0 1.49442,0.66909 1.49442,1.49442 z"
       style="fill:#5b5c56;fill-opacity:1;fill-rule:nonzero;stroke:none"
       transform="matrix(1.3333333,0,0,-1.3333333,20.890667,436.63733)" />
    <path
       id="path39"
       d="m 29.84122,28.3468 c 0,0.82535 -0.66907,1.49442 -1.49442,1.49442 -0.82535,0 -1.49441,-0.66907 -1.49441,-1.49442 0,-0.82535 0.66906,-1.49441 1.49441,-1.49441 0.82535,0 1.49442,0.66906 1.49442,1.49441 z"
       style="fill:#5b5c56;fill-opacity:1;fill-rule:nonzero;stroke:none"
       transform="matrix(1.3333333,0,0,-1.3333333,20.890667,436.63733)" />
    <path
       id="path40"
       d="m 29.84122,56.69362 c 0,0.82533 -0.66907,1.49441 -1.49442,1.49441 -0.82535,0 -1.49441,-0.66908 -1.49441,-1.49441 0,-0.82535 0.66906,-1.49442 1.49441,-1.49442 0.82535,0 1.49442,0.66907 1.49442,1.49442 z"
       style="fill:#5b5c56;fill-opacity:1;fill-rule:nonzero;stroke:none"
       transform="matrix(1.3333333,0,0,-1.3333333,20.890667,436.63733)" />
    <path
       id="path41"
       d="m 29.84122,85.04042 c 0,0.82535 -0.66907,1.49442 -1.49442,1.49442 -0.82535,0 -1.49441,-0.66907 -1.49441,-1.49442 0,-0.82535 0.66906,-1.49442 1.49441,-1.49442 0.82535,0 1.49442,0.66907 1.49442,1.49442 z"
       style="fill:#5b5c56;fill-opacity:1;fill-rule:nonzero;stroke:none"
       transform="matrix(1.3333333,0,0,-1.3333333,20.890667,436.63733)" />
    <path
       id="path42"
       d="m 29.84122,113.38724 c 0,0.82533 -0.66907,1.49441 -1.49442,1.49441 -0.82535,0 -1.49441,-0.66908 -1.49441,-1.49441 0,-0.82535 0.66906,-1.49442 1.49441,-1.49442 0.82535,0 1.49442,0.66907 1.49442,1.49442 z"
       style="fill:#5b5c56;fill-opacity:1;fill-rule:nonzero;stroke:none"
       transform="matrix(1.3333333,0,0,-1.3333333,20.890667,436.63733)" />
    <path
       id="path43"
       d="m 29.84122,141.73404 c 0,0.82535 -0.66907,1.49441 -1.49442,1.49441 -0.82535,0 -1.49441,-0.66906 -1.49441,-1.49441 0,-0.82535 0.66906,-1.49442 1.49441,-1.49442 0.82535,0 1.49442,0.66907 1.49442,1.49442 z"
       style="fill:#5b5c56;fill-opacity:1;fill-rule:nonzero;stroke:none"
       transform="matrix(1.3333333,0,0,-1.3333333,20.890667,436.63733)" />
    <path
       id="path44"
       d="m 29.84122,170.08086 c 0,0.82534 -0.66907,1.49441 -1.49442,1.49441 -0.82535,0 -1.49441,-0.66907 -1.49441,-1.49441 0,-0.82535 0.66906,-1.49442 1.49441,-1.49442 0.82535,0 1.49442,0.66907 1.49442,1.49442 z"
       style="fill:#5b5c56;fill-opacity:1;fill-rule:nonzero;stroke:none"
       transform="matrix(1.3333333,0,0,-1.3333333,20.890667,436.63733)" />
    <path
       id="path45"
       d="m 29.84122,198.42766 c 0,0.82534 -0.66907,1.49441 -1.49442,1.49441 -0.82535,0 -1.49441,-0.66907 -1.49441,-1.49441 0,-0.82535 0.66906,-1.49442 1.49441,-1.49442 0.82535,0 1.49442,0.66907 1.49442,1.49442 z"
       style="fill:#5b5c56;fill-opacity:1;fill-rule:nonzero;stroke:none"
       transform="matrix(1.3333333,0,0,-1.3333333,20.890667,436.63733)" />
    <path
       id="path46"
       d="m 29.84122,226.77448 c 0,0.82534 -0.66907,1.49441 -1.49442,1.49441 -0.82535,0 -1.49441,-0.66907 -1.49441,-1.49441 0,-0.82535 0.66906,-1.49442 1.49441,-1.49442 0.82535,0 1.49442,0.66907 1.49442,1.49442 z"
       style="fill:#5b5c56;fill-opacity:1;fill-rule:nonzero;stroke:none"
       transform="matrix(1.3333333,0,0,-1.3333333,20.890667,436.63733)" />
    <path
       id="path47"
       d="m 29.84122,255.12128 c 0,0.82534 -0.66907,1.49441 -1.49442,1.49441 -0.82535,0 -1.49441,-0.66907 -1.49441,-1.49441 0,-0.82535 0.66906,-1.49442 1.49441,-1.49442 0.82535,0 1.49442,0.66907 1.49442,1.49442 z"
       style="fill:#5b5c56;fill-opacity:1;fill-rule:nonzero;stroke:none"
       transform="matrix(1.3333333,0,0,-1.3333333,20.890667,436.63733)" />
    <path
       id="path48"
       d="m 29.84122,283.4681 c 0,0.82534 -0.66907,1.49441 -1.49442,1.49441 -0.82535,0 -1.49441,-0.66907 -1.49441,-1.49441 0,-0.82535 0.66906,-1.49442 1.49441,-1.49442 0.82535,0 1.49442,0.66907 1.49442,1.49442 z"
       style="fill:#5b5c56;fill-opacity:1;fill-rule:nonzero;stroke:none"
       transform="matrix(1.3333333,0,0,-1.3333333,20.890667,436.63733)" />
    <path
       id="path49"
       d="m 29.84122,311.8149 c 0,0.82534 -0.66907,1.49441 -1.49442,1.49441 -0.82535,0 -1.49441,-0.66907 -1.49441,-1.49441 0,-0.82535 0.66906,-1.49442 1.49441,-1.49442 0.82535,0 1.49442,0.66907 1.49442,1.49442 z"
       style="fill:#5b5c56;fill-opacity:1;fill-rule:nonzero;stroke:none"
       transform="matrix(1.3333333,0,0,-1.3333333,20.890667,436.63733)" />
    <path
       id="path50"
       d="m 58.18803,0 c 0,0.82533 -0.66908,1.49442 -1.49441,1.49442 -0.82535,0 -1.49442,-0.66909 -1.49442,-1.49442 0,-0.82533 0.66907,-1.49442 1.49442,-1.49442 0.82533,0 1.49441,0.66909 1.49441,1.49442 z"
       style="fill:#5b5c56;fill-opacity:1;fill-rule:nonzero;stroke:none"
       transform="matrix(1.3333333,0,0,-1.3333333,20.890667,436.63733)" />
    <path
       id="path51"
       d="m 58.18803,28.3468 c 0,0.82535 -0.66908,1.49442 -1.49441,1.49442 -0.82535,0 -1.49442,-0.66907 -1.49442,-1.49442 0,-0.82535 0.66907,-1.49441 1.49442,-1.49441 0.82533,0 1.49441,0.66906 1.49441,1.49441 z"
       style="fill:#5b5c56;fill-opacity:1;fill-rule:nonzero;stroke:none"
       transform="matrix(1.3333333,0,0,-1.3333333,20.890667,436.63733)" />
    <path
       id="path52"
       d="m 58.18803,56.69362 c 0,0.82533 -0.66908,1.49441 -1.49441,1.49441 -0.82535,0 -1.49442,-0.66908 -1.49442,-1.49441 0,-0.82535 0.66907,-1.49442 1.49442,-1.49442 0.82533,0 1.49441,0.66907 1.49441,1.49442 z"
       style="fill:#5b5c56;fill-opacity:1;fill-rule:nonzero;stroke:none"
       transform="matrix(1.3333333,0,0,-1.3333333,20.890667,436.63733)" />
    <path
       id="path53"
       d="m 58.18803,85.04042 c 0,0.82535 -0.66908,1.49442 -1.49441,1.49442 -0.82535,0 -1.49442,-0.66907 -1.49442,-1.49442 0,-0.82535 0.66907,-1.49442 1.49442,-1.49442 0.82533,0 1.49441,0.66907 1.49441,1.49442 z"
       style="fill:#5b5c56;fill-opacity:1;fill-rule:nonzero;stroke:none"
       transform="matrix(1.3333333,0,0,-1.3333333,20.890667,436.63733)" />
    <path
       id="path54"
       d="m 58.18803,113.38724 c 0,0.82533 -0.66908,1.49441 -1.49441,1.49441 -0.82535,0 -1.49442,-0.66908 -1.49442,-1.49441 0,-0.82535 0.66907,-1.49442 1.49442,-1.49442 0.82533,0 1.49441,0.66907 1.49441,1.49442 z"
       style="fill:#5b5c56;fill-opacity:1;fill-rule:nonzero;stroke:none"
       transform="matrix(1.3333333,0,0,-1.3333333,20.890667,436.63733)" />
    <path
       id="path55"
       d="m 58.18803,141.73404 c 0,0.82535 -0.66908,1.49441 -1.49441,1.49441 -0.82535,0 -1.49442,-0.66906 -1.49442,-1.49441 0,-0.82535 0.66907,-1.49442 1.49442,-1.49442 0.82533,0 1.49441,0.66907 1.49441,1.49442 z"
       style="fill:#5b5c56;fill-opacity:1;fill-rule:nonzero;stroke:none"
       transform="matrix(1.3333333,0,0,-1.3333333,20.890667,436.63733)" />
    <path
       id="path56"
       d="m 58.18803,170.08086 c 0,0.82534 -0.66908,1.49441 -1.49441,1.49441 -0.82535,0 -1.49442,-0.66907 -1.49442,-1.49441 0,-0.82535 0.66907,-1.49442 1.49442,-1.49442 0.82533,0 1.49441,0.66907 1.49441,1.49442 z"
       style="fill:#5b5c56;fill-opacity:1;fill-rule:nonzero;stroke:none"
       transform="matrix(1.3333333,0,0,-1.3333333,20.890667,436.63733)" />
    <path
       id="path57"
       d="m 58.18803,198.42766 c 0,0.82534 -0.66908,1.49441 -1.49441,1.49441 -0.82535,0 -1.49442,-0.66907 -1.49442,-1.49441 0,-0.82535 0.66907,-1.49442 1.49442,-1.49442 0.82533,0 1.49441,0.66907 1.49441,1.49442 z"
       style="fill:#5b5c56;fill-opacity:1;fill-rule:nonzero;stroke:none"
       transform="matrix(1.3333333,0,0,-1.3333333,20.890667,436.63733)" />
    <path
       id="path58"
       d="m 58.18803,226.77448 c 0,0.82534 -0.66908,1.49441 -1.49441,1.49441 -0.82535,0 -1.49442,-0.66907 -1.49442,-1.49441 0,-0.82535 0.66907,-1.49442 1.49442,-1.49442 0.82533,0 1.49441,0.66907 1.49441,1.49442 z"
       style="fill:#5b5c56;fill-opacity:1;fill-rule:nonzero;stroke:none"
       transform="matrix(1.3333333,0,0,-1.3333333,20.890667,436.63733)" />
    <path
       id="path59"
       d="m 58.18803,255.12128 c 0,0.82534 -0.66908,1.49441 -1.49441,1.49441 -0.82535,0 -1.49442,-0.66907 -1.49442,-1.49441 0,-0.82535 0.66907,-1.49442 1.49442,-1.49442 0.82533,0 1.49441,0.66907 1.49441,1.49442 z"
       style="fill:#5b5c56;fill-opacity:1;fill-rule:nonzero;stroke:none"
       transform="matrix(1.3333333,0,0,-1.3333333,20.890667,436.63733)" />
    <path
       id="path60"
       d="m 58.18803,283.4681 c 0,0.82534 -0.66908,1.49441 -1.49441,1.49441 -0.82535,0 -1.49442,-0.66907 -1.49442,-1.49441 0,-0.82535 0.66907,-1.49442 1.49442,-1.49442 0.82533,0 1.49441,0.66907 1.49441,1.49442 z"
       style="fill:#5b5c56;fill-opacity:1;fill-rule:nonzero;stroke:none"
       transform="matrix(1.3333333,0,0,-1.3333333,20.890667,436.63733)" />
    <path
       id="path61"
       d="m 58.18803,311.8149 c 0,0.82534 -0.66908,1.49441 -1.49441,1.49441 -0.82535,0 -1.49442,-0.66907 -1.49442,-1.49441 0,-0.82535 0.66907,-1.49442 1.49442,-1.49442 0.82533,0 1.49441,0.66907 1.49441,1.49442 z"
       style="fill:#5b5c56;fill-opacity:1;fill-rule:nonzero;stroke:none"
       transform="matrix(1.3333333,0,0,-1.3333333,20.890667,436.63733)" />
    <path
       id="path62"
       d="m 86.53484,0 c 0,0.82533 -0.66907,1.49442 -1.49442,1.49442 C 84.21507,1.49442 83.546,0.82533 83.546,0 c 0,-0.82533 0.66907,-1.49442 1.49442,-1.49442 0.82535,0 1.49442,0.66909 1.49442,1.49442 z"
       style="fill:#5b5c56;fill-opacity:1;fill-rule:nonzero;stroke:none"
       transform="matrix(1.3333333,0,0,-1.3333333,20.890667,436.63733)" />
    <path
       id="path63"
       d="m 86.53484,28.3468 c 0,0.82535 -0.66907,1.49442 -1.49442,1.49442 -0.82535,0 -1.49442,-0.66907 -1.49442,-1.49442 0,-0.82535 0.66907,-1.49441 1.49442,-1.49441 0.82535,0 1.49442,0.66906 1.49442,1.49441 z"
       style="fill:#5b5c56;fill-opacity:1;fill-rule:nonzero;stroke:none"
       transform="matrix(1.3333333,0,0,-1.3333333,20.890667,436.63733)" />
    <path
       id="path64"
       d="m 86.53484,56.69362 c 0,0.82533 -0.66907,1.49441 -1.49442,1.49441 -0.82535,0 -1.49442,-0.66908 -1.49442,-1.49441 0,-0.82535 0.66907,-1.49442 1.49442,-1.49442 0.82535,0 1.49442,0.66907 1.49442,1.49442 z"
       style="fill:#5b5c56;fill-opacity:1;fill-rule:nonzero;stroke:none"
       transform="matrix(1.3333333,0,0,-1.3333333,20.890667,436.63733)" />
    <path
       id="path65"
       d="m 86.53484,85.04042 c 0,0.82535 -0.66907,1.49442 -1.49442,1.49442 -0.82535,0 -1.49442,-0.66907 -1.49442,-1.49442 0,-0.82535 0.66907,-1.49442 1.49442,-1.49442 0.82535,0 1.49442,0.66907 1.49442,1.49442 z"
       style="fill:#5b5c56;fill-opacity:1;fill-rule:nonzero;stroke:none"
       transform="matrix(1.3333333,0,0,-1.3333333,20.890667,436.63733)" />
    <path
       id="path66"
       d="m 86.53484,113.38724 c 0,0.82533 -0.66907,1.49441 -1.49442,1.49441 -0.82535,0 -1.49442,-0.66908 -1.49442,-1.49441 0,-0.82535 0.66907,-1.49442 1.49442,-1.49442 0.82535,0 1.49442,0.66907 1.49442,1.49442 z"
       style="fill:#5b5c56;fill-opacity:1;fill-rule:nonzero;stroke:none"
       transform="matrix(1.3333333,0,0,-1.3333333,20.890667,436.63733)" />
    <path
       id="path67"
       d="m 86.53484,141.73404 c 0,0.82535 -0.66907,1.49441 -1.49442,1.49441 -0.82535,0 -1.49442,-0.66906 -1.49442,-1.49441 0,-0.82535 0.66907,-1.49442 1.49442,-1.49442 0.82535,0 1.49442,0.66907 1.49442,1.49442 z"
       style="fill:#5b5c56;fill-opacity:1;fill-rule:nonzero;stroke:none"
       transform="matrix(1.3333333,0,0,-1.3333333,20.890667,436.63733)" />
    <path
       id="path68"
       d="m 86.53484,170.08086 c 0,0.82534 -0.66907,1.49441 -1.49442,1.49441 -0.82535,0 -1.49442,-0.66907 -1.49442,-1.49441 0,-0.82535 0.66907,-1.49442 1.49442,-1.49442 0.82535,0 1.49442,0.66907 1.49442,1.49442 z"
       style="fill:#5b5c56;fill-opacity:1;fill-rule:nonzero;stroke:none"
       transform="matrix(1.3333333,0,0,-1.3333333,20.890667,436.63733)" />
    <path
       id="path69"
       d="m 86.53484,198.42766 c 0,0.82534 -0.66907,1.49441 -1.49442,1.49441 -0.82535,0 -1.49442,-0.66907 -1.49442,-1.49441 0,-0.82535 0.66907,-1.49442 1.49442,-1.49442 0.82535,0 1.49442,0.66907 1.49442,1.49442 z"
       style="fill:#5b5c56;fill-opacity:1;fill-rule:nonzero;stroke:none"
       transform="matrix(1.3333333,0,0,-1.3333333,20.890667,436.63733)" />
    <path
       id="path70"
       d="m 86.53484,226.77448 c 0,0.82534 -0.66907,1.49441 -1.49442,1.49441 -0.82535,0 -1.49442,-0.66907 -1.49442,-1.49441 0,-0.82535 0.66907,-1.49442 1.49442,-1.49442 0.82535,0 1.49442,0.66907 1.49442,1.49442 z"
       style="fill:#5b5c56;fill-opacity:1;fill-rule:nonzero;stroke:none"
       transform="matrix(1.3333333,0,0,-1.3333333,20.890667,436.63733)" />
    <path
       id="path71"
       d="m 86.53484,255.12128 c 0,0.82534 -0.66907,1.49441 -1.49442,1.49441 -0.82535,0 -1.49442,-0.66907 -1.49442,-1.49441 0,-0.82535 0.66907,-1.49442 1.49442,-1.49442 0.82535,0 1.49442,0.66907 1.49442,1.49442 z"
       style="fill:#5b5c56;fill-opacity:1;fill-rule:nonzero;stroke:none"
       transform="matrix(1.3333333,0,0,-1.3333333,20.890667,436.63733)" />
    <path
       id="path72"
       d="m 86.53484,283.4681 c 0,0.82534 -0.66907,1.49441 -1.49442,1.49441 -0.82535,0 -1.49442,-0.66907 -1.49442,-1.49441 0,-0.82535 0.66907,-1.49442 1.49442,-1.49442 0.82535,0 1.49442,0.66907 1.49442,1.49442 z"
       style="fill:#5b5c56;fill-opacity:1;fill-rule:nonzero;stroke:none"
       transform="matrix(1.3333333,0,0,-1.3333333,20.890667,436.63733)" />
    <path
       id="path73"
       d="m 86.53484,311.8149 c 0,0.82534 -0.66907,1.49441 -1.49442,1.49441 -0.82535,0 -1.49442,-0.66907 -1.49442,-1.49441 0,-0.82535 0.66907,-1.49442 1.49442,-1.49442 0.82535,0 1.49442,0.66907 1.49442,1.49442 z"
       style="fill:#5b5c56;fill-opacity:1;fill-rule:nonzero;stroke:none"
       transform="matrix(1.3333333,0,0,-1.3333333,20.890667,436.63733)" />
    <path
       id="path74"
       d="m 114.88165,0 c 0,0.82533 -0.66908,1.49442 -1.49441,1.49442 -0.82535,0 -1.49442,-0.66909 -1.49442,-1.49442 0,-0.82533 0.66907,-1.49442 1.49442,-1.49442 0.82533,0 1.49441,0.66909 1.49441,1.49442 z"
       style="fill:#5b5c56;fill-opacity:1;fill-rule:nonzero;stroke:none"
       transform="matrix(1.3333333,0,0,-1.3333333,20.890667,436.63733)" />
    <path
       id="path75"
       d="m 114.88165,28.3468 c 0,0.82535 -0.66908,1.49442 -1.49441,1.49442 -0.82535,0 -1.49442,-0.66907 -1.49442,-1.49442 0,-0.82535 0.66907,-1.49441 1.49442,-1.49441 0.82533,0 1.49441,0.66906 1.49441,1.49441 z"
       style="fill:#5b5c56;fill-opacity:1;fill-rule:nonzero;stroke:none"
       transform="matrix(1.3333333,0,0,-1.3333333,20.890667,436.63733)" />
    <path
       id="path76"
       d="m 114.88165,56.69362 c 0,0.82533 -0.66908,1.49441 -1.49441,1.49441 -0.82535,0 -1.49442,-0.66908 -1.49442,-1.49441 0,-0.82535 0.66907,-1.49442 1.49442,-1.49442 0.82533,0 1.49441,0.66907 1.49441,1.49442 z"
       style="fill:#5b5c56;fill-opacity:1;fill-rule:nonzero;stroke:none"
       transform="matrix(1.3333333,0,0,-1.3333333,20.890667,436.63733)" />
    <path
       id="path77"
       d="m 114.88165,85.04042 c 0,0.82535 -0.66908,1.49442 -1.49441,1.49442 -0.82535,0 -1.49442,-0.66907 -1.49442,-1.49442 0,-0.82535 0.66907,-1.49442 1.49442,-1.49442 0.82533,0 1.49441,0.66907 1.49441,1.49442 z"
       style="fill:#5b5c56;fill-opacity:1;fill-rule:nonzero;stroke:none"
       transform="matrix(1.3333333,0,0,-1.3333333,20.890667,436.63733)" />
    <path
       id="path78"
       d="m 114.88165,113.38724 c 0,0.82533 -0.66908,1.49441 -1.49441,1.49441 -0.82535,0 -1.49442,-0.66908 -1.49442,-1.49441 0,-0.82535 0.66907,-1.49442 1.49442,-1.49442 0.82533,0 1.49441,0.66907 1.49441,1.49442 z"
       style="fill:#5b5c56;fill-opacity:1;fill-rule:nonzero;stroke:none"
       transform="matrix(1.3333333,0,0,-1.3333333,20.890667,436.63733)" />
    <path
       id="path79"
       d="m 114.88165,141.73404 c 0,0.82535 -0.66908,1.49441 -1.49441,1.49441 -0.82535,0 -1.49442,-0.66906 -1.49442,-1.49441 0,-0.82535 0.66907,-1.49442 1.49442,-1.49442 0.82533,0 1.49441,0.66907 1.49441,1.49442 z"
       style="fill:#5b5c56;fill-opacity:1;fill-rule:nonzero;stroke:none"
       transform="matrix(1.3333333,0,0,-1.3333333,20.890667,436.63733)" />
    <path
       id="path80"
       d="m 114.88165,170.08086 c 0,0.82534 -0.66908,1.49441 -1.49441,1.49441 -0.82535,0 -1.49442,-0.66907 -1.49442,-1.49441 0,-0.82535 0.66907,-1.49442 1.49442,-1.49442 0.82533,0 1.49441,0.66907 1.49441,1.49442 z"
       style="fill:#5b5c56;fill-opacity:1;fill-rule:nonzero;stroke:none"
       transform="matrix(1.3333333,0,0,-1.3333333,20.890667,436.63733)" />
    <path
       id="path81"
       d="m 114.88165,198.42766 c 0,0.82534 -0.66908,1.49441 -1.49441,1.49441 -0.82535,0 -1.49442,-0.66907 -1.49442,-1.49441 0,-0.82535 0.66907,-1.49442 1.49442,-1.49442 0.82533,0 1.49441,0.66907 1.49441,1.49442 z"
       style="fill:#5b5c56;fill-opacity:1;fill-rule:nonzero;stroke:none"
       transform="matrix(1.3333333,0,0,-1.3333333,20.890667,436.63733)" />
    <path
       id="path82"
       d="m 114.88165,226.77448 c 0,0.82534 -0.66908,1.49441 -1.49441,1.49441 -0.82535,0 -1.49442,-0.66907 -1.49442,-1.49441 0,-0.82535 0.66907,-1.49442 1.49442,-1.49442 0.82533,0 1.49441,0.66907 1.49441,1.49442 z"
       style="fill:#5b5c56;fill-opacity:1;fill-rule:nonzero;stroke:none"
       transform="matrix(1.3333333,0,0,-1.3333333,20.890667,436.63733)" />
    <path
       id="path83"
       d="m 114.88165,255.12128 c 0,0.82534 -0.66908,1.49441 -1.49441,1.49441 -0.82535,0 -1.49442,-0.66907 -1.49442,-1.49441 0,-0.82535 0.66907,-1.49442 1.49442,-1.49442 0.82533,0 1.49441,0.66907 1.49441,1.49442 z"
       style="fill:#5b5c56;fill-opacity:1;fill-rule:nonzero;stroke:none"
       transform="matrix(1.3333333,0,0,-1.3333333,20.890667,436.63733)" />
    <path
       id="path84"
       d="m 114.88165,283.4681 c 0,0.82534 -0.66908,1.49441 -1.49441,1.49441 -0.82535,0 -1.49442,-0.66907 -1.49442,-1.49441 0,-0.82535 0.66907,-1.49442 1.49442,-1.49442 0.82533,0 1.49441,0.66907 1.49441,1.49442 z"
       style="fill:#5b5c56;fill-opacity:1;fill-rule:nonzero;stroke:none"
       transform="matrix(1.3333333,0,0,-1.3333333,20.890667,436.63733)" />
    <path
       id="path85"
       d="m 114.88165,311.8149 c 0,0.82534 -0.66908,1.49441 -1.49441,1.49441 -0.82535,0 -1.49442,-0.66907 -1.49442,-1.49441 0,-0.82535 0.66907,-1.49442 1.49442,-1.49442 0.82533,0 1.49441,0.66907 1.49441,1.49442 z"
       style="fill:#5b5c56;fill-opacity:1;fill-rule:nonzero;stroke:none"
       transform="matrix(1.3333333,0,0,-1.3333333,20.890667,436.63733)" />
    <path
       id="path86"
       d="m 143.22845,0 c 0,0.82533 -0.66906,1.49442 -1.49441,1.49442 -0.82535,0 -1.49442,-0.66909 -1.49442,-1.49442 0,-0.82533 0.66907,-1.49442 1.49442,-1.49442 0.82535,0 1.49441,0.66909 1.49441,1.49442 z"
       style="fill:#5b5c56;fill-opacity:1;fill-rule:nonzero;stroke:none"
       transform="matrix(1.3333333,0,0,-1.3333333,20.890667,436.63733)" />
    <path
       id="path87"
       d="m 143.22845,28.3468 c 0,0.82535 -0.66906,1.49442 -1.49441,1.49442 -0.82535,0 -1.49442,-0.66907 -1.49442,-1.49442 0,-0.82535 0.66907,-1.49441 1.49442,-1.49441 0.82535,0 1.49441,0.66906 1.49441,1.49441 z"
       style="fill:#5b5c56;fill-opacity:1;fill-rule:nonzero;stroke:none"
       transform="matrix(1.3333333,0,0,-1.3333333,20.890667,436.63733)" />
    <path
       id="path88"
       d="m 143.22845,56.69362 c 0,0.82533 -0.66906,1.49441 -1.49441,1.49441 -0.82535,0 -1.49442,-0.66908 -1.49442,-1.49441 0,-0.82535 0.66907,-1.49442 1.49442,-1.49442 0.82535,0 1.49441,0.66907 1.49441,1.49442 z"
       style="fill:#5b5c56;fill-opacity:1;fill-rule:nonzero;stroke:none"
       transform="matrix(1.3333333,0,0,-1.3333333,20.890667,436.63733)" />
    <path
       id="path89"
       d="m 143.22845,85.04042 c 0,0.82535 -0.66906,1.49442 -1.49441,1.49442 -0.82535,0 -1.49442,-0.66907 -1.49442,-1.49442 0,-0.82535 0.66907,-1.49442 1.49442,-1.49442 0.82535,0 1.49441,0.66907 1.49441,1.49442 z"
       style="fill:#5b5c56;fill-opacity:1;fill-rule:nonzero;stroke:none"
       transform="matrix(1.3333333,0,0,-1.3333333,20.890667,436.63733)" />
    <path
       id="path90"
       d="m 143.22845,113.38724 c 0,0.82533 -0.66906,1.49441 -1.49441,1.49441 -0.82535,0 -1.49442,-0.66908 -1.49442,-1.49441 0,-0.82535 0.66907,-1.49442 1.49442,-1.49442 0.82535,0 1.49441,0.66907 1.49441,1.49442 z"
       style="fill:#5b5c56;fill-opacity:1;fill-rule:nonzero;stroke:none"
       transform="matrix(1.3333333,0,0,-1.3333333,20.890667,436.63733)" />
    <path
       id="path91"
       d="m 143.22845,141.73404 c 0,0.82535 -0.66906,1.49441 -1.49441,1.49441 -0.82535,0 -1.49442,-0.66906 -1.49442,-1.49441 0,-0.82535 0.66907,-1.49442 1.49442,-1.49442 0.82535,0 1.49441,0.66907 1.49441,1.49442 z"
       style="fill:#5b5c56;fill-opacity:1;fill-rule:nonzero;stroke:none"
       transform="matrix(1.3333333,0,0,-1.3333333,20.890667,436.63733)" />
    <path
       id="path92"
       d="m 143.22845,170.08086 c 0,0.82534 -0.66906,1.49441 -1.49441,1.49441 -0.82535,0 -1.49442,-0.66907 -1.49442,-1.49441 0,-0.82535 0.66907,-1.49442 1.49442,-1.49442 0.82535,0 1.49441,0.66907 1.49441,1.49442 z"
       style="fill:#5b5c56;fill-opacity:1;fill-rule:nonzero;stroke:none"
       transform="matrix(1.3333333,0,0,-1.3333333,20.890667,436.63733)" />
    <path
       id="path93"
       d="m 143.22845,198.42766 c 0,0.82534 -0.66906,1.49441 -1.49441,1.49441 -0.82535,0 -1.49442,-0.66907 -1.49442,-1.49441 0,-0.82535 0.66907,-1.49442 1.49442,-1.49442 0.82535,0 1.49441,0.66907 1.49441,1.49442 z"
       style="fill:#5b5c56;fill-opacity:1;fill-rule:nonzero;stroke:none"
       transform="matrix(1.3333333,0,0,-1.3333333,20.890667,436.63733)" />
    <path
       id="path94"
       d="m 143.22845,226.77448 c 0,0.82534 -0.66906,1.49441 -1.49441,1.49441 -0.82535,0 -1.49442,-0.66907 -1.49442,-1.49441 0,-0.82535 0.66907,-1.49442 1.49442,-1.49442 0.82535,0 1.49441,0.66907 1.49441,1.49442 z"
       style="fill:#5b5c56;fill-opacity:1;fill-rule:nonzero;stroke:none"
       transform="matrix(1.3333333,0,0,-1.3333333,20.890667,436.63733)" />
    <path
       id="path95"
       d="m 143.22845,255.12128 c 0,0.82534 -0.66906,1.49441 -1.49441,1.49441 -0.82535,0 -1.49442,-0.66907 -1.49442,-1.49441 0,-0.82535 0.66907,-1.49442 1.49442,-1.49442 0.82535,0 1.49441,0.66907 1.49441,1.49442 z"
       style="fill:#5b5c56;fill-opacity:1;fill-rule:nonzero;stroke:none"
       transform="matrix(1.3333333,0,0,-1.3333333,20.890667,436.63733)" />
    <path
       id="path96"
       d="m 143.22845,283.4681 c 0,0.82534 -0.66906,1.49441 -1.49441,1.49441 -0.82535,0 -1.49442,-0.66907 -1.49442,-1.49441 0,-0.82535 0.66907,-1.49442 1.49442,-1.49442 0.82535,0 1.49441,0.66907 1.49441,1.49442 z"
       style="fill:#5b5c56;fill-opacity:1;fill-rule:nonzero;stroke:none"
       transform="matrix(1.3333333,0,0,-1.3333333,20.890667,436.63733)" />
    <path
       id="path97"
       d="m 143.22845,311.8149 c 0,0.82534 -0.66906,1.49441 -1.49441,1.49441 -0.82535,0 -1.49442,-0.66907 -1.49442,-1.49441 0,-0.82535 0.66907,-1.49442 1.49442,-1.49442 0.82535,0 1.49441,0.66907 1.49441,1.49442 z"
       style="fill:#5b5c56;fill-opacity:1;fill-rule:nonzero;stroke:none"
       transform="matrix(1.3333333,0,0,-1.3333333,20.890667,436.63733)" />
    <path
       id="path98"
       d="m 171.57527,0 c 0,0.82533 -0.66907,1.49442 -1.49441,1.49442 -0.82535,0 -1.49442,-0.66909 -1.49442,-1.49442 0,-0.82533 0.66907,-1.49442 1.49442,-1.49442 0.82534,0 1.49441,0.66909 1.49441,1.49442 z"
       style="fill:#5b5c56;fill-opacity:1;fill-rule:nonzero;stroke:none"
       transform="matrix(1.3333333,0,0,-1.3333333,20.890667,436.63733)" />
    <path
       id="path99"
       d="m 171.57527,28.3468 c 0,0.82535 -0.66907,1.49442 -1.49441,1.49442 -0.82535,0 -1.49442,-0.66907 -1.49442,-1.49442 0,-0.82535 0.66907,-1.49441 1.49442,-1.49441 0.82534,0 1.49441,0.66906 1.49441,1.49441 z"
       style="fill:#5b5c56;fill-opacity:1;fill-rule:nonzero;stroke:none"
       transform="matrix(1.3333333,0,0,-1.3333333,20.890667,436.63733)" />
    <path
       id="path100"
       d="m 171.57527,56.69362 c 0,0.82533 -0.66907,1.49441 -1.49441,1.49441 -0.82535,0 -1.49442,-0.66908 -1.49442,-1.49441 0,-0.82535 0.66907,-1.49442 1.49442,-1.49442 0.82534,0 1.49441,0.66907 1.49441,1.49442 z"
       style="fill:#5b5c56;fill-opacity:1;fill-rule:nonzero;stroke:none"
       transform="matrix(1.3333333,0,0,-1.3333333,20.890667,436.63733)" />
    <path
       id="path101"
       d="m 171.57527,85.04042 c 0,0.82535 -0.66907,1.49442 -1.49441,1.49442 -0.82535,0 -1.49442,-0.66907 -1.49442,-1.49442 0,-0.82535 0.66907,-1.49442 1.49442,-1.49442 0.82534,0 1.49441,0.66907 1.49441,1.49442 z"
       style="fill:#5b5c56;fill-opacity:1;fill-rule:nonzero;stroke:none"
       transform="matrix(1.3333333,0,0,-1.3333333,20.890667,436.63733)" />
    <path
       id="path102"
       d="m 171.57527,113.38724 c 0,0.82533 -0.66907,1.49441 -1.49441,1.49441 -0.82535,0 -1.49442,-0.66908 -1.49442,-1.49441 0,-0.82535 0.66907,-1.49442 1.49442,-1.49442 0.82534,0 1.49441,0.66907 1.49441,1.49442 z"
       style="fill:#5b5c56;fill-opacity:1;fill-rule:nonzero;stroke:none"
       transform="matrix(1.3333333,0,0,-1.3333333,20.890667,436.63733)" />
    <path
       id="path103"
       d="m 171.57527,141.73404 c 0,0.82535 -0.66907,1.49441 -1.49441,1.49441 -0.82535,0 -1.49442,-0.66906 -1.49442,-1.49441 0,-0.82535 0.66907,-1.49442 1.49442,-1.49442 0.82534,0 1.49441,0.66907 1.49441,1.49442 z"
       style="fill:#5b5c56;fill-opacity:1;fill-rule:nonzero;stroke:none"
       transform="matrix(1.3333333,0,0,-1.3333333,20.890667,436.63733)" />
    <path
       id="path104"
       d="m 171.57527,170.08086 c 0,0.82534 -0.66907,1.49441 -1.49441,1.49441 -0.82535,0 -1.49442,-0.66907 -1.49442,-1.49441 0,-0.82535 0.66907,-1.49442 1.49442,-1.49442 0.82534,0 1.49441,0.66907 1.49441,1.49442 z"
       style="fill:#5b5c56;fill-opacity:1;fill-rule:nonzero;stroke:none"
       transform="matrix(1.3333333,0,0,-1.3333333,20.890667,436.63733)" />
    <path
       id="path105"
       d="m 171.57527,198.42766 c 0,0.82534 -0.66907,1.49441 -1.49441,1.49441 -0.82535,0 -1.49442,-0.66907 -1.49442,-1.49441 0,-0.82535 0.66907,-1.49442 1.49442,-1.49442 0.82534,0 1.49441,0.66907 1.49441,1.49442 z"
       style="fill:#5b5c56;fill-opacity:1;fill-rule:nonzero;stroke:none"
       transform="matrix(1.3333333,0,0,-1.3333333,20.890667,436.63733)" />
    <path
       id="path106"
       d="m 171.57527,226.77448 c 0,0.82534 -0.66907,1.49441 -1.49441,1.49441 -0.82535,0 -1.49442,-0.66907 -1.49442,-1.49441 0,-0.82535 0.66907,-1.49442 1.49442,-1.49442 0.82534,0 1.49441,0.66907 1.49441,1.49442 z"
       style="fill:#5b5c56;fill-opacity:1;fill-rule:nonzero;stroke:none"
       transform="matrix(1.3333333,0,0,-1.3333333,20.890667,436.63733)" />
    <path
       id="path107"
       d="m 171.57527,255.12128 c 0,0.82534 -0.66907,1.49441 -1.49441,1.49441 -0.82535,0 -1.49442,-0.66907 -1.49442,-1.49441 0,-0.82535 0.66907,-1.49442 1.49442,-1.49442 0.82534,0 1.49441,0.66907 1.49441,1.49442 z"
       style="fill:#5b5c56;fill-opacity:1;fill-rule:nonzero;stroke:none"
       transform="matrix(1.3333333,0,0,-1.3333333,20.890667,436.63733)" />
    <path
       id="path108"
       d="m 171.57527,283.4681 c 0,0.82534 -0.66907,1.49441 -1.49441,1.49441 -0.82535,0 -1.49442,-0.66907 -1.49442,-1.49441 0,-0.82535 0.66907,-1.49442 1.49442,-1.49442 0.82534,0 1.49441,0.66907 1.49441,1.49442 z"
       style="fill:#5b5c56;fill-opacity:1;fill-rule:nonzero;stroke:none"
       transform="matrix(1.3333333,0,0,-1.3333333,20.890667,436.63733)" />
    <path
       id="path109"
       d="m 171.57527,311.8149 c 0,0.82534 -0.66907,1.49441 -1.49441,1.49441 -0.82535,0 -1.49442,-0.66907 -1.49442,-1.49441 0,-0.82535 0.66907,-1.49442 1.49442,-1.49442 0.82534,0 1.49441,0.66907 1.49441,1.49442 z"
       style="fill:#5b5c56;fill-opacity:1;fill-rule:nonzero;stroke:none"
       transform="matrix(1.3333333,0,0,-1.3333333,20.890667,436.63733)" />
    <path
       id="path110"
       d="m 199.92207,0 c 0,0.82533 -0.66907,1.49442 -1.49441,1.49442 -0.82535,0 -1.49442,-0.66909 -1.49442,-1.49442 0,-0.82533 0.66907,-1.49442 1.49442,-1.49442 0.82534,0 1.49441,0.66909 1.49441,1.49442 z"
       style="fill:#5b5c56;fill-opacity:1;fill-rule:nonzero;stroke:none"
       transform="matrix(1.3333333,0,0,-1.3333333,20.890667,436.63733)" />
    <path
       id="path111"
       d="m 199.92207,28.3468 c 0,0.82535 -0.66907,1.49442 -1.49441,1.49442 -0.82535,0 -1.49442,-0.66907 -1.49442,-1.49442 0,-0.82535 0.66907,-1.49441 1.49442,-1.49441 0.82534,0 1.49441,0.66906 1.49441,1.49441 z"
       style="fill:#5b5c56;fill-opacity:1;fill-rule:nonzero;stroke:none"
       transform="matrix(1.3333333,0,0,-1.3333333,20.890667,436.63733)" />
    <path
       id="path112"
       d="m 199.92207,56.69362 c 0,0.82533 -0.66907,1.49441 -1.49441,1.49441 -0.82535,0 -1.49442,-0.66908 -1.49442,-1.49441 0,-0.82535 0.66907,-1.49442 1.49442,-1.49442 0.82534,0 1.49441,0.66907 1.49441,1.49442 z"
       style="fill:#5b5c56;fill-opacity:1;fill-rule:nonzero;stroke:none"
       transform="matrix(1.3333333,0,0,-1.3333333,20.890667,436.63733)" />
    <path
       id="path113"
       d="m 199.92207,85.04042 c 0,0.82535 -0.66907,1.49442 -1.49441,1.49442 -0.82535,0 -1.49442,-0.66907 -1.49442,-1.49442 0,-0.82535 0.66907,-1.49442 1.49442,-1.49442 0.82534,0 1.49441,0.66907 1.49441,1.49442 z"
       style="fill:#5b5c56;fill-opacity:1;fill-rule:nonzero;stroke:none"
       transform="matrix(1.3333333,0,0,-1.3333333,20.890667,436.63733)" />
    <path
       id="path114"
       d="m 199.92207,113.38724 c 0,0.82533 -0.66907,1.49441 -1.49441,1.49441 -0.82535,0 -1.49442,-0.66908 -1.49442,-1.49441 0,-0.82535 0.66907,-1.49442 1.49442,-1.49442 0.82534,0 1.49441,0.66907 1.49441,1.49442 z"
       style="fill:#5b5c56;fill-opacity:1;fill-rule:nonzero;stroke:none"
       transform="matrix(1.3333333,0,0,-1.3333333,20.890667,436.63733)" />
    <path
       id="path115"
       d="m 199.92207,141.73404 c 0,0.82535 -0.66907,1.49441 -1.49441,1.49441 -0.82535,0 -1.49442,-0.66906 -1.49442,-1.49441 0,-0.82535 0.66907,-1.49442 1.49442,-1.49442 0.82534,0 1.49441,0.66907 1.49441,1.49442 z"
       style="fill:#5b5c56;fill-opacity:1;fill-rule:nonzero;stroke:none"
       transform="matrix(1.3333333,0,0,-1.3333333,20.890667,436.63733)" />
    <path
       id="path116"
       d="m 199.92207,170.08086 c 0,0.82534 -0.66907,1.49441 -1.49441,1.49441 -0.82535,0 -1.49442,-0.66907 -1.49442,-1.49441 0,-0.82535 0.66907,-1.49442 1.49442,-1.49442 0.82534,0 1.49441,0.66907 1.49441,1.49442 z"
       style="fill:#5b5c56;fill-opacity:1;fill-rule:nonzero;stroke:none"
       transform="matrix(1.3333333,0,0,-1.3333333,20.890667,436.63733)" />
    <path
       id="path117"
       d="m 199.92207,198.42766 c 0,0.82534 -0.66907,1.49441 -1.49441,1.49441 -0.82535,0 -1.49442,-0.66907 -1.49442,-1.49441 0,-0.82535 0.66907,-1.49442 1.49442,-1.49442 0.82534,0 1.49441,0.66907 1.49441,1.49442 z"
       style="fill:#5b5c56;fill-opacity:1;fill-rule:nonzero;stroke:none"
       transform="matrix(1.3333333,0,0,-1.3333333,20.890667,436.63733)" />
    <path
       id="path118"
       d="m 199.92207,226.77448 c 0,0.82534 -0.66907,1.49441 -1.49441,1.49441 -0.82535,0 -1.49442,-0.66907 -1.49442,-1.49441 0,-0.82535 0.66907,-1.49442 1.49442,-1.49442 0.82534,0 1.49441,0.66907 1.49441,1.49442 z"
       style="fill:#5b5c56;fill-opacity:1;fill-rule:nonzero;stroke:none"
       transform="matrix(1.3333333,0,0,-1.3333333,20.890667,436.63733)" />
    <path
       id="path119"
       d="m 199.92207,255.12128 c 0,0.82534 -0.66907,1.49441 -1.49441,1.49441 -0.82535,0 -1.49442,-0.66907 -1.49442,-1.49441 0,-0.82535 0.66907,-1.49442 1.49442,-1.49442 0.82534,0 1.49441,0.66907 1.49441,1.49442 z"
       style="fill:#5b5c56;fill-opacity:1;fill-rule:nonzero;stroke:none"
       transform="matrix(1.3333333,0,0,-1.3333333,20.890667,436.63733)" />
    <path
       id="path120"
       d="m 199.92207,283.4681 c 0,0.82534 -0.66907,1.49441 -1.49441,1.49441 -0.82535,0 -1.49442,-0.66907 -1.49442,-1.49441 0,-0.82535 0.66907,-1.49442 1.49442,-1.49442 0.82534,0 1.49441,0.66907 1.49441,1.49442 z"
       style="fill:#5b5c56;fill-opacity:1;fill-rule:nonzero;stroke:none"
       transform="matrix(1.3333333,0,0,-1.3333333,20.890667,436.63733)" />
    <path
       id="path121"
       d="m 199.92207,311.8149 c 0,0.82534 -0.66907,1.49441 -1.49441,1.49441 -0.82535,0 -1.49442,-0.66907 -1.49442,-1.49441 0,-0.82535 0.66907,-1.49442 1.49442,-1.49442 0.82534,0 1.49441,0.66907 1.49441,1.49442 z"
       style="fill:#5b5c56;fill-opacity:1;fill-rule:nonzero;stroke:none"
       transform="matrix(1.3333333,0,0,-1.3333333,20.890667,436.63733)" />
    <path
       id="path122"
       d="m 228.26889,0 c 0,0.82533 -0.66907,1.49442 -1.49441,1.49442 -0.82535,0 -1.49442,-0.66909 -1.49442,-1.49442 0,-0.82533 0.66907,-1.49442 1.49442,-1.49442 0.82534,0 1.49441,0.66909 1.49441,1.49442 z"
       style="fill:#5b5c56;fill-opacity:1;fill-rule:nonzero;stroke:none"
       transform="matrix(1.3333333,0,0,-1.3333333,20.890667,436.63733)" />
    <path
       id="path123"
       d="m 228.26889,28.3468 c 0,0.82535 -0.66907,1.49442 -1.49441,1.49442 -0.82535,0 -1.49442,-0.66907 -1.49442,-1.49442 0,-0.82535 0.66907,-1.49441 1.49442,-1.49441 0.82534,0 1.49441,0.66906 1.49441,1.49441 z"
       style="fill:#5b5c56;fill-opacity:1;fill-rule:nonzero;stroke:none"
       transform="matrix(1.3333333,0,0,-1.3333333,20.890667,436.63733)" />
    <path
       id="path124"
       d="m 228.26889,56.69362 c 0,0.82533 -0.66907,1.49441 -1.49441,1.49441 -0.82535,0 -1.49442,-0.66908 -1.49442,-1.49441 0,-0.82535 0.66907,-1.49442 1.49442,-1.49442 0.82534,0 1.49441,0.66907 1.49441,1.49442 z"
       style="fill:#5b5c56;fill-opacity:1;fill-rule:nonzero;stroke:none"
       transform="matrix(1.3333333,0,0,-1.3333333,20.890667,436.63733)" />
    <path
       id="path125"
       d="m 228.26889,85.04042 c 0,0.82535 -0.66907,1.49442 -1.49441,1.49442 -0.82535,0 -1.49442,-0.66907 -1.49442,-1.49442 0,-0.82535 0.66907,-1.49442 1.49442,-1.49442 0.82534,0 1.49441,0.66907 1.49441,1.49442 z"
       style="fill:#5b5c56;fill-opacity:1;fill-rule:nonzero;stroke:none"
       transform="matrix(1.3333333,0,0,-1.3333333,20.890667,436.63733)" />
    <path
       id="path126"
       d="m 228.26889,113.38724 c 0,0.82533 -0.66907,1.49441 -1.49441,1.49441 -0.82535,0 -1.49442,-0.66908 -1.49442,-1.49441 0,-0.82535 0.66907,-1.49442 1.49442,-1.49442 0.82534,0 1.49441,0.66907 1.49441,1.49442 z"
       style="fill:#5b5c56;fill-opacity:1;fill-rule:nonzero;stroke:none"
       transform="matrix(1.3333333,0,0,-1.3333333,20.890667,436.63733)" />
    <path
       id="path127"
       d="m 228.26889,141.73404 c 0,0.82535 -0.66907,1.49441 -1.49441,1.49441 -0.82535,0 -1.49442,-0.66906 -1.49442,-1.49441 0,-0.82535 0.66907,-1.49442 1.49442,-1.49442 0.82534,0 1.49441,0.66907 1.49441,1.49442 z"
       style="fill:#5b5c56;fill-opacity:1;fill-rule:nonzero;stroke:none"
       transform="matrix(1.3333333,0,0,-1.3333333,20.890667,436.63733)" />
    <path
       id="path128"
       d="m 228.26889,170.08086 c 0,0.82534 -0.66907,1.49441 -1.49441,1.49441 -0.82535,0 -1.49442,-0.66907 -1.49442,-1.49441 0,-0.82535 0.66907,-1.49442 1.49442,-1.49442 0.82534,0 1.49441,0.66907 1.49441,1.49442 z"
       style="fill:#5b5c56;fill-opacity:1;fill-rule:nonzero;stroke:none"
       transform="matrix(1.3333333,0,0,-1.3333333,20.890667,436.63733)" />
    <path
       id="path129"
       d="m 228.26889,198.42766 c 0,0.82534 -0.66907,1.49441 -1.49441,1.49441 -0.82535,0 -1.49442,-0.66907 -1.49442,-1.49441 0,-0.82535 0.66907,-1.49442 1.49442,-1.49442 0.82534,0 1.49441,0.66907 1.49441,1.49442 z"
       style="fill:#5b5c56;fill-opacity:1;fill-rule:nonzero;stroke:none"
       transform="matrix(1.3333333,0,0,-1.3333333,20.890667,436.63733)" />
    <path
       id="path130"
       d="m 228.26889,226.77448 c 0,0.82534 -0.66907,1.49441 -1.49441,1.49441 -0.82535,0 -1.49442,-0.66907 -1.49442,-1.49441 0,-0.82535 0.66907,-1.49442 1.49442,-1.49442 0.82534,0 1.49441,0.66907 1.49441,1.49442 z"
       style="fill:#5b5c56;fill-opacity:1;fill-rule:nonzero;stroke:none"
       transform="matrix(1.3333333,0,0,-1.3333333,20.890667,436.63733)" />
    <path
       id="path131"
       d="m 228.26889,255.12128 c 0,0.82534 -0.66907,1.49441 -1.49441,1.49441 -0.82535,0 -1.49442,-0.66907 -1.49442,-1.49441 0,-0.82535 0.66907,-1.49442 1.49442,-1.49442 0.82534,0 1.49441,0.66907 1.49441,1.49442 z"
       style="fill:#5b5c56;fill-opacity:1;fill-rule:nonzero;stroke:none"
       transform="matrix(1.3333333,0,0,-1.3333333,20.890667,436.63733)" />
    <path
       id="path132"
       d="m 228.26889,283.4681 c 0,0.82534 -0.66907,1.49441 -1.49441,1.49441 -0.82535,0 -1.49442,-0.66907 -1.49442,-1.49441 0,-0.82535 0.66907,-1.49442 1.49442,-1.49442 0.82534,0 1.49441,0.66907 1.49441,1.49442 z"
       style="fill:#5b5c56;fill-opacity:1;fill-rule:nonzero;stroke:none"
       transform="matrix(1.3333333,0,0,-1.3333333,20.890667,436.63733)" />
    <path
       id="path133"
       d="m 228.26889,311.8149 c 0,0.82534 -0.66907,1.49441 -1.49441,1.49441 -0.82535,0 -1.49442,-0.66907 -1.49442,-1.49441 0,-0.82535 0.66907,-1.49442 1.49442,-1.49442 0.82534,0 1.49441,0.66907 1.49441,1.49442 z"
       style="fill:#5b5c56;fill-opacity:1;fill-rule:nonzero;stroke:none"
       transform="matrix(1.3333333,0,0,-1.3333333,20.890667,436.63733)" />
    <path
       id="path134"
       d="m 256.61569,0 c 0,0.82533 -0.66907,1.49442 -1.49441,1.49442 -0.82535,0 -1.49442,-0.66909 -1.49442,-1.49442 0,-0.82533 0.66907,-1.49442 1.49442,-1.49442 0.82534,0 1.49441,0.66909 1.49441,1.49442 z"
       style="fill:#5b5c56;fill-opacity:1;fill-rule:nonzero;stroke:none"
       transform="matrix(1.3333333,0,0,-1.3333333,20.890667,436.63733)" />
    <path
       id="path135"
       d="m 256.61569,28.3468 c 0,0.82535 -0.66907,1.49442 -1.49441,1.49442 -0.82535,0 -1.49442,-0.66907 -1.49442,-1.49442 0,-0.82535 0.66907,-1.49441 1.49442,-1.49441 0.82534,0 1.49441,0.66906 1.49441,1.49441 z"
       style="fill:#5b5c56;fill-opacity:1;fill-rule:nonzero;stroke:none"
       transform="matrix(1.3333333,0,0,-1.3333333,20.890667,436.63733)" />
    <path
       id="path136"
       d="m 256.61569,56.69362 c 0,0.82533 -0.66907,1.49441 -1.49441,1.49441 -0.82535,0 -1.49442,-0.66908 -1.49442,-1.49441 0,-0.82535 0.66907,-1.49442 1.49442,-1.49442 0.82534,0 1.49441,0.66907 1.49441,1.49442 z"
       style="fill:#5b5c56;fill-opacity:1;fill-rule:nonzero;stroke:none"
       transform="matrix(1.3333333,0,0,-1.3333333,20.890667,436.63733)" />
    <path
       id="path137"
       d="m 256.61569,85.04042 c 0,0.82535 -0.66907,1.49442 -1.49441,1.49442 -0.82535,0 -1.49442,-0.66907 -1.49442,-1.49442 0,-0.82535 0.66907,-1.49442 1.49442,-1.49442 0.82534,0 1.49441,0.66907 1.49441,1.49442 z"
       style="fill:#5b5c56;fill-opacity:1;fill-rule:nonzero;stroke:none"
       transform="matrix(1.3333333,0,0,-1.3333333,20.890667,436.63733)" />
    <path
       id="path138"
       d="m 256.61569,113.38724 c 0,0.82533 -0.66907,1.49441 -1.49441,1.49441 -0.82535,0 -1.49442,-0.66908 -1.49442,-1.49441 0,-0.82535 0.66907,-1.49442 1.49442,-1.49442 0.82534,0 1.49441,0.66907 1.49441,1.49442 z"
       style="fill:#5b5c56;fill-opacity:1;fill-rule:nonzero;stroke:none"
       transform="matrix(1.3333333,0,0,-1.3333333,20.890667,436.63733)" />
    <path
       id="path139"
       d="m 256.61569,141.73404 c 0,0.82535 -0.66907,1.49441 -1.49441,1.49441 -0.82535,0 -1.49442,-0.66906 -1.49442,-1.49441 0,-0.82535 0.66907,-1.49442 1.49442,-1.49442 0.82534,0 1.49441,0.66907 1.49441,1.49442 z"
       style="fill:#5b5c56;fill-opacity:1;fill-rule:nonzero;stroke:none"
       transform="matrix(1.3333333,0,0,-1.3333333,20.890667,436.63733)" />
    <path
       id="path140"
       d="m 256.61569,170.08086 c 0,0.82534 -0.66907,1.49441 -1.49441,1.49441 -0.82535,0 -1.49442,-0.66907 -1.49442,-1.49441 0,-0.82535 0.66907,-1.49442 1.49442,-1.49442 0.82534,0 1.49441,0.66907 1.49441,1.49442 z"
       style="fill:#5b5c56;fill-opacity:1;fill-rule:nonzero;stroke:none"
       transform="matrix(1.3333333,0,0,-1.3333333,20.890667,436.63733)" />
    <path
       id="path141"
       d="m 256.61569,198.42766 c 0,0.82534 -0.66907,1.49441 -1.49441,1.49441 -0.82535,0 -1.49442,-0.66907 -1.49442,-1.49441 0,-0.82535 0.66907,-1.49442 1.49442,-1.49442 0.82534,0 1.49441,0.66907 1.49441,1.49442 z"
       style="fill:#5b5c56;fill-opacity:1;fill-rule:nonzero;stroke:none"
       transform="matrix(1.3333333,0,0,-1.3333333,20.890667,436.63733)" />
    <path
       id="path142"
       d="m 256.61569,226.77448 c 0,0.82534 -0.66907,1.49441 -1.49441,1.49441 -0.82535,0 -1.49442,-0.66907 -1.49442,-1.49441 0,-0.82535 0.66907,-1.49442 1.49442,-1.49442 0.82534,0 1.49441,0.66907 1.49441,1.49442 z"
       style="fill:#5b5c56;fill-opacity:1;fill-rule:nonzero;stroke:none"
       transform="matrix(1.3333333,0,0,-1.3333333,20.890667,436.63733)" />
    <path
       id="path143"
       d="m 256.61569,255.12128 c 0,0.82534 -0.66907,1.49441 -1.49441,1.49441 -0.82535,0 -1.49442,-0.66907 -1.49442,-1.49441 0,-0.82535 0.66907,-1.49442 1.49442,-1.49442 0.82534,0 1.49441,0.66907 1.49441,1.49442 z"
       style="fill:#5b5c56;fill-opacity:1;fill-rule:nonzero;stroke:none"
       transform="matrix(1.3333333,0,0,-1.3333333,20.890667,436.63733)" />
    <path
       id="path144"
       d="m 256.61569,283.4681 c 0,0.82534 -0.66907,1.49441 -1.49441,1.49441 -0.82535,0 -1.49442,-0.66907 -1.49442,-1.49441 0,-0.82535 0.66907,-1.49442 1.49442,-1.49442 0.82534,0 1.49441,0.66907 1.49441,1.49442 z"
       style="fill:#5b5c56;fill-opacity:1;fill-rule:nonzero;stroke:none"
       transform="matrix(1.3333333,0,0,-1.3333333,20.890667,436.63733)" />
    <path
       id="path145"
       d="m 256.61569,311.8149 c 0,0.82534 -0.66907,1.49441 -1.49441,1.49441 -0.82535,0 -1.49442,-0.66907 -1.49442,-1.49441 0,-0.82535 0.66907,-1.49442 1.49442,-1.49442 0.82534,0 1.49441,0.66907 1.49441,1.49442 z"
       style="fill:#5b5c56;fill-opacity:1;fill-rule:nonzero;stroke:none"
       transform="matrix(1.3333333,0,0,-1.3333333,20.890667,436.63733)" />
    <path
       id="path146"
       d="m 284.96251,0 c 0,0.82533 -0.66907,1.49442 -1.49441,1.49442 -0.82535,0 -1.49442,-0.66909 -1.49442,-1.49442 0,-0.82533 0.66907,-1.49442 1.49442,-1.49442 0.82534,0 1.49441,0.66909 1.49441,1.49442 z"
       style="fill:#5b5c56;fill-opacity:1;fill-rule:nonzero;stroke:none"
       transform="matrix(1.3333333,0,0,-1.3333333,20.890667,436.63733)" />
    <path
       id="path147"
       d="m 284.96251,28.3468 c 0,0.82535 -0.66907,1.49442 -1.49441,1.49442 -0.82535,0 -1.49442,-0.66907 -1.49442,-1.49442 0,-0.82535 0.66907,-1.49441 1.49442,-1.49441 0.82534,0 1.49441,0.66906 1.49441,1.49441 z"
       style="fill:#5b5c56;fill-opacity:1;fill-rule:nonzero;stroke:none"
       transform="matrix(1.3333333,0,0,-1.3333333,20.890667,436.63733)" />
    <path
       id="path148"
       d="m 284.96251,56.69362 c 0,0.82533 -0.66907,1.49441 -1.49441,1.49441 -0.82535,0 -1.49442,-0.66908 -1.49442,-1.49441 0,-0.82535 0.66907,-1.49442 1.49442,-1.49442 0.82534,0 1.49441,0.66907 1.49441,1.49442 z"
       style="fill:#5b5c56;fill-opacity:1;fill-rule:nonzero;stroke:none"
       transform="matrix(1.3333333,0,0,-1.3333333,20.890667,436.63733)" />
    <path
       id="path149"
       d="m 284.96251,85.04042 c 0,0.82535 -0.66907,1.49442 -1.49441,1.49442 -0.82535,0 -1.49442,-0.66907 -1.49442,-1.49442 0,-0.82535 0.66907,-1.49442 1.49442,-1.49442 0.82534,0 1.49441,0.66907 1.49441,1.49442 z"
       style="fill:#5b5c56;fill-opacity:1;fill-rule:nonzero;stroke:none"
       transform="matrix(1.3333333,0,0,-1.3333333,20.890667,436.63733)" />
    <path
       id="path150"
       d="m 284.96251,113.38724 c 0,0.82533 -0.66907,1.49441 -1.49441,1.49441 -0.82535,0 -1.49442,-0.66908 -1.49442,-1.49441 0,-0.82535 0.66907,-1.49442 1.49442,-1.49442 0.82534,0 1.49441,0.66907 1.49441,1.49442 z"
       style="fill:#5b5c56;fill-opacity:1;fill-rule:nonzero;stroke:none"
       transform="matrix(1.3333333,0,0,-1.3333333,20.890667,436.63733)" />
    <path
       id="path151"
       d="m 284.96251,141.73404 c 0,0.82535 -0.66907,1.49441 -1.49441,1.49441 -0.82535,0 -1.49442,-0.66906 -1.49442,-1.49441 0,-0.82535 0.66907,-1.49442 1.49442,-1.49442 0.82534,0 1.49441,0.66907 1.49441,1.49442 z"
       style="fill:#5b5c56;fill-opacity:1;fill-rule:nonzero;stroke:none"
       transform="matrix(1.3333333,0,0,-1.3333333,20.890667,436.63733)" />
    <path
       id="path152"
       d="m 284.96251,170.08086 c 0,0.82534 -0.66907,1.49441 -1.49441,1.49441 -0.82535,0 -1.49442,-0.66907 -1.49442,-1.49441 0,-0.82535 0.66907,-1.49442 1.49442,-1.49442 0.82534,0 1.49441,0.66907 1.49441,1.49442 z"
       style="fill:#5b5c56;fill-opacity:1;fill-rule:nonzero;stroke:none"
       transform="matrix(1.3333333,0,0,-1.3333333,20.890667,436.63733)" />
    <path
       id="path153"
       d="m 284.96251,198.42766 c 0,0.82534 -0.66907,1.49441 -1.49441,1.49441 -0.82535,0 -1.49442,-0.66907 -1.49442,-1.49441 0,-0.82535 0.66907,-1.49442 1.49442,-1.49442 0.82534,0 1.49441,0.66907 1.49441,1.49442 z"
       style="fill:#5b5c56;fill-opacity:1;fill-rule:nonzero;stroke:none"
       transform="matrix(1.3333333,0,0,-1.3333333,20.890667,436.63733)" />
    <path
       id="path154"
       d="m 284.96251,226.77448 c 0,0.82534 -0.66907,1.49441 -1.49441,1.49441 -0.82535,0 -1.49442,-0.66907 -1.49442,-1.49441 0,-0.82535 0.66907,-1.49442 1.49442,-1.49442 0.82534,0 1.49441,0.66907 1.49441,1.49442 z"
       style="fill:#5b5c56;fill-opacity:1;fill-rule:nonzero;stroke:none"
       transform="matrix(1.3333333,0,0,-1.3333333,20.890667,436.63733)" />
    <path
       id="path155"
       d="m 284.96251,255.12128 c 0,0.82534 -0.66907,1.49441 -1.49441,1.49441 -0.82535,0 -1.49442,-0.66907 -1.49442,-1.49441 0,-0.82535 0.66907,-1.49442 1.49442,-1.49442 0.82534,0 1.49441,0.66907 1.49441,1.49442 z"
       style="fill:#5b5c56;fill-opacity:1;fill-rule:nonzero;stroke:none"
       transform="matrix(1.3333333,0,0,-1.3333333,20.890667,436.63733)" />
    <path
       id="path156"
       d="m 284.96251,283.4681 c 0,0.82534 -0.66907,1.49441 -1.49441,1.49441 -0.82535,0 -1.49442,-0.66907 -1.49442,-1.49441 0,-0.82535 0.66907,-1.49442 1.49442,-1.49442 0.82534,0 1.49441,0.66907 1.49441,1.49442 z"
       style="fill:#5b5c56;fill-opacity:1;fill-rule:nonzero;stroke:none"
       transform="matrix(1.3333333,0,0,-1.3333333,20.890667,436.63733)" />
    <path
       id="path157"
       d="m 284.96251,311.8149 c 0,0.82534 -0.66907,1.49441 -1.49441,1.49441 -0.82535,0 -1.49442,-0.66907 -1.49442,-1.49441 0,-0.82535 0.66907,-1.49442 1.49442,-1.49442 0.82534,0 1.49441,0.66907 1.49441,1.49442 z"
       style="fill:#5b5c56;fill-opacity:1;fill-rule:nonzero;stroke:none"
       transform="matrix(1.3333333,0,0,-1.3333333,20.890667,436.63733)" />
    <path
       id="path158"
       d="m 141.73404,0 56.69362,56.69362 V 28.3468 l 56.69362,56.69362 v 56.69362 h 28.34682 v 56.69362 l -28.34682,56.69362 -56.69362,56.69362 h -28.3468 l -28.34682,-28.3468 -28.3468,28.3468 H 85.04042 L 28.3468,255.12128 0,198.42766 V 141.73404 H 28.3468 V 85.04042 L 85.04042,28.3468 V 56.69362 L 141.73404,0"
       style="fill:none;stroke:#000000;stroke-width:1.19553;stroke-linecap:round;stroke-linejoin:round;stroke-miterlimit:10;stroke-dasharray:none;stroke-opacity:1"
       transform="matrix(1.3333333,0,0,-1.3333333,20.890667,436.63733)" />
    <path
       id="path159"
       d="m 141.73404,56.69362 56.69362,56.69362 v 28.3468 l 28.34682,28.34682 v 28.3468 l -56.69362,56.69362 -28.34682,-28.3468 -28.3468,28.3468 -56.69362,-56.69362 v -28.3468 l 28.3468,-28.34682 v -28.3468 l 56.69362,-56.69362"
       style="fill:none;stroke:#000000;stroke-width:1.19553;stroke-linecap:round;stroke-linejoin:round;stroke-miterlimit:10;stroke-dasharray:none;stroke-opacity:1"
       transform="matrix(1.3333333,0,0,-1.3333333,20.890667,436.63733)" />
    <path
       id="path160"
       d="m 141.73404,85.04042 v 28.34682 l 28.34682,28.3468 h -56.69362 l 28.3468,-28.3468"
       style="fill:none;stroke:#000000;stroke-width:1.19553;stroke-linecap:round;stroke-linejoin:round;stroke-miterlimit:10;stroke-dasharray:none;stroke-opacity:1"
       transform="matrix(1.3333333,0,0,-1.3333333,20.890667,436.63733)" />
    <path
       id="path161"
       d="m 113.38724,141.73404 v 28.34682"
       style="fill:none;stroke:#000000;stroke-width:1.19553;stroke-linecap:round;stroke-linejoin:round;stroke-miterlimit:10;stroke-dasharray:none;stroke-opacity:1"
       transform="matrix(1.3333333,0,0,-1.3333333,20.890667,436.63733)" />
    <path
       id="path162"
       d="m 170.08086,141.73404 v 28.34682"
       style="fill:none;stroke:#000000;stroke-width:1.19553;stroke-linecap:round;stroke-linejoin:round;stroke-miterlimit:10;stroke-dasharray:none;stroke-opacity:1"
       transform="matrix(1.3333333,0,0,-1.3333333,20.890667,436.63733)" />
    <path
       id="path163"
       d="m 113.38724,85.04042 h 56.69362"
       style="fill:none;stroke:#000000;stroke-width:1.19553;stroke-linecap:round;stroke-linejoin:round;stroke-miterlimit:10;stroke-dasharray:none;stroke-opacity:1"
       transform="matrix(1.3333333,0,0,-1.3333333,20.890667,436.63733)" />
    <path
       id="path164"
       d="m 85.04042,113.38724 28.34682,56.69362"
       style="fill:none;stroke:#000000;stroke-width:1.19553;stroke-linecap:round;stroke-linejoin:round;stroke-miterlimit:10;stroke-dasharray:none;stroke-opacity:1"
       transform="matrix(1.3333333,0,0,-1.3333333,20.890667,436.63733)" />
    <path
       id="path165"
       d="m 198.42766,113.38724 -28.3468,56.69362"
       style="fill:none;stroke:#000000;stroke-width:1.19553;stroke-linecap:round;stroke-linejoin:round;stroke-miterlimit:10;stroke-dasharray:none;stroke-opacity:1"
       transform="matrix(1.3333333,0,0,-1.3333333,20.890667,436.63733)" />
    <path
       id="path166"
       d="M 141.73404,0 V 56.69362"
       style="fill:none;stroke:#000000;stroke-width:1.19553;stroke-linecap:round;stroke-linejoin:round;stroke-miterlimit:10;stroke-dasharray:none;stroke-opacity:1"
       transform="matrix(1.3333333,0,0,-1.3333333,20.890667,436.63733)" />
    <path
       id="path167"
       d="m 141.73404,0 56.69362,113.38724"
       style="fill:none;stroke:#000000;stroke-width:1.19553;stroke-linecap:round;stroke-linejoin:round;stroke-miterlimit:10;stroke-dasharray:none;stroke-opacity:1"
       transform="matrix(1.3333333,0,0,-1.3333333,20.890667,436.63733)" />
    <path
       id="path168"
       d="m 198.42766,56.69362 v 56.69362"
       style="fill:none;stroke:#000000;stroke-width:1.19553;stroke-linecap:round;stroke-linejoin:round;stroke-miterlimit:10;stroke-dasharray:none;stroke-opacity:1"
       transform="matrix(1.3333333,0,0,-1.3333333,20.890667,436.63733)" />
    <path
       id="path169"
       d="m 198.42766,28.3468 28.34682,56.69362 v 28.34682"
       style="fill:none;stroke:#000000;stroke-width:1.19553;stroke-linecap:round;stroke-linejoin:round;stroke-miterlimit:10;stroke-dasharray:none;stroke-opacity:1"
       transform="matrix(1.3333333,0,0,-1.3333333,20.890667,436.63733)" />
    <path
       id="path170"
       d="m 198.42766,141.73404 56.69362,-56.69362 -28.3468,85.04044"
       style="fill:none;stroke:#000000;stroke-width:1.19553;stroke-linecap:round;stroke-linejoin:round;stroke-miterlimit:10;stroke-dasharray:none;stroke-opacity:1"
       transform="matrix(1.3333333,0,0,-1.3333333,20.890667,436.63733)" />
    <path
       id="path171"
       d="M 226.77448,198.42766 283.4681,141.73404"
       style="fill:none;stroke:#000000;stroke-width:1.19553;stroke-linecap:round;stroke-linejoin:round;stroke-miterlimit:10;stroke-dasharray:none;stroke-opacity:1"
       transform="matrix(1.3333333,0,0,-1.3333333,20.890667,436.63733)" />
    <path
       id="path172"
       d="m 283.4681,198.42766 -113.38724,56.69362 28.3468,28.34682 h 28.34682"
       style="fill:none;stroke:#000000;stroke-width:1.19553;stroke-linecap:round;stroke-linejoin:round;stroke-miterlimit:10;stroke-dasharray:none;stroke-opacity:1"
       transform="matrix(1.3333333,0,0,-1.3333333,20.890667,436.63733)" />
    <path
       id="path173"
       d="m 170.08086,255.12128 28.3468,56.69362"
       style="fill:none;stroke:#000000;stroke-width:1.19553;stroke-linecap:round;stroke-linejoin:round;stroke-miterlimit:10;stroke-dasharray:none;stroke-opacity:1"
       transform="matrix(1.3333333,0,0,-1.3333333,20.890667,436.63733)" />
    <path
       id="path174"
       d="M 141.73404,226.77448 V 283.4681"
       style="fill:none;stroke:#000000;stroke-width:1.19553;stroke-linecap:round;stroke-linejoin:round;stroke-miterlimit:10;stroke-dasharray:none;stroke-opacity:1"
       transform="matrix(1.3333333,0,0,-1.3333333,20.890667,436.63733)" />
    <path
       id="path175"
       d="m 85.04042,56.69362 v 56.69362"
       style="fill:none;stroke:#000000;stroke-width:1.19553;stroke-linecap:round;stroke-linejoin:round;stroke-miterlimit:10;stroke-dasharray:none;stroke-opacity:1"
       transform="matrix(1.3333333,0,0,-1.3333333,20.890667,436.63733)" />
    <path
       id="path176"
       d="M 141.73404,0 85.04042,113.38724"
       style="fill:none;stroke:#000000;stroke-width:1.19553;stroke-linecap:round;stroke-linejoin:round;stroke-miterlimit:10;stroke-dasharray:none;stroke-opacity:1"
       transform="matrix(1.3333333,0,0,-1.3333333,20.890667,436.63733)" />
    <path
       id="path177"
       d="m 85.04042,28.3468 -28.3468,56.69362 v 28.34682"
       style="fill:none;stroke:#000000;stroke-width:1.19553;stroke-linecap:round;stroke-linejoin:round;stroke-miterlimit:10;stroke-dasharray:none;stroke-opacity:1"
       transform="matrix(1.3333333,0,0,-1.3333333,20.890667,436.63733)" />
    <path
       id="path178"
       d="M 85.04042,141.73404 28.3468,85.04042 56.69362,170.08086"
       style="fill:none;stroke:#000000;stroke-width:1.19553;stroke-linecap:round;stroke-linejoin:round;stroke-miterlimit:10;stroke-dasharray:none;stroke-opacity:1"
       transform="matrix(1.3333333,0,0,-1.3333333,20.890667,436.63733)" />
    <path
       id="path179"
       d="m 0,141.73404 56.69362,56.69362"
       style="fill:none;stroke:#000000;stroke-width:1.19553;stroke-linecap:round;stroke-linejoin:round;stroke-miterlimit:10;stroke-dasharray:none;stroke-opacity:1"
       transform="matrix(1.3333333,0,0,-1.3333333,20.890667,436.63733)" />
    <path
       id="path180"
       d="M 0,198.42766 113.38724,255.12128 85.04042,283.4681 H 56.69362"
       style="fill:none;stroke:#000000;stroke-width:1.19553;stroke-linecap:round;stroke-linejoin:round;stroke-miterlimit:10;stroke-dasharray:none;stroke-opacity:1"
       transform="matrix(1.3333333,0,0,-1.3333333,20.890667,436.63733)" />
    <path
       id="path181"
       d="M 113.38724,255.12128 85.04042,311.8149"
       style="fill:none;stroke:#000000;stroke-width:1.19553;stroke-linecap:round;stroke-linejoin:round;stroke-miterlimit:10;stroke-dasharray:none;stroke-opacity:1"
       transform="matrix(1.3333333,0,0,-1.3333333,20.890667,436.63733)" />
    <path
       id="path182"
       d="m 118.36862,198.42766 c 0,2.75117 -2.23021,4.98138 -4.98138,4.98138 -2.75119,0 -4.98139,-2.23021 -4.98139,-4.98138 0,-2.75118 2.2302,-4.98139 4.98139,-4.98139 2.75117,0 4.98138,2.23021 4.98138,4.98139 z"
       style="fill:#000000;fill-opacity:1;fill-rule:nonzero;stroke:none"
       transform="matrix(1.3333333,0,0,-1.3333333,20.890667,436.63733)" />
    <path
       id="path183"
       d="m 175.06224,198.42766 c 0,2.75117 -2.23021,4.98138 -4.98138,4.98138 -2.75119,0 -4.98139,-2.23021 -4.98139,-4.98138 0,-2.75118 2.2302,-4.98139 4.98139,-4.98139 2.75117,0 4.98138,2.23021 4.98138,4.98139 z"
       style="fill:#000000;fill-opacity:1;fill-rule:nonzero;stroke:none"
       transform="matrix(1.3333333,0,0,-1.3333333,20.890667,436.63733)" />
    <path
       id="path184"
       d="m 1.49442,141.73404 c 0,0.82535 -0.66909,1.49441 -1.49442,1.49441 -0.82533,0 -1.49442,-0.66906 -1.49442,-1.49441 0,-0.82535 0.66909,-1.49442 1.49442,-1.49442 0.82533,0 1.49442,0.66907 1.49442,1.49442 z"
       style="fill:#000000;fill-opacity:1;fill-rule:nonzero;stroke:none"
       transform="matrix(1.3333333,0,0,-1.3333333,20.890667,436.63733)" />
    <path
       id="path185"
       d="m 1.49442,170.08086 c 0,0.82534 -0.66909,1.49441 -1.49442,1.49441 -0.82533,0 -1.49442,-0.66907 -1.49442,-1.49441 0,-0.82535 0.66909,-1.49442 1.49442,-1.49442 0.82533,0 1.49442,0.66907 1.49442,1.49442 z"
       style="fill:#000000;fill-opacity:1;fill-rule:nonzero;stroke:none"
       transform="matrix(1.3333333,0,0,-1.3333333,20.890667,436.63733)" />
    <path
       id="path186"
       d="m 1.49442,198.42766 c 0,0.82534 -0.66909,1.49441 -1.49442,1.49441 -0.82533,0 -1.49442,-0.66907 -1.49442,-1.49441 0,-0.82535 0.66909,-1.49442 1.49442,-1.49442 0.82533,0 1.49442,0.66907 1.49442,1.49442 z"
       style="fill:#000000;fill-opacity:1;fill-rule:nonzero;stroke:none"
       transform="matrix(1.3333333,0,0,-1.3333333,20.890667,436.63733)" />
    <path
       id="path187"
       d="m 29.84122,85.04042 c 0,0.82535 -0.66907,1.49442 -1.49442,1.49442 -0.82535,0 -1.49441,-0.66907 -1.49441,-1.49442 0,-0.82535 0.66906,-1.49442 1.49441,-1.49442 0.82535,0 1.49442,0.66907 1.49442,1.49442 z"
       style="fill:#000000;fill-opacity:1;fill-rule:nonzero;stroke:none"
       transform="matrix(1.3333333,0,0,-1.3333333,20.890667,436.63733)" />
    <path
       id="path188"
       d="m 29.84122,113.38724 c 0,0.82533 -0.66907,1.49441 -1.49442,1.49441 -0.82535,0 -1.49441,-0.66908 -1.49441,-1.49441 0,-0.82535 0.66906,-1.49442 1.49441,-1.49442 0.82535,0 1.49442,0.66907 1.49442,1.49442 z"
       style="fill:#000000;fill-opacity:1;fill-rule:nonzero;stroke:none"
       transform="matrix(1.3333333,0,0,-1.3333333,20.890667,436.63733)" />
    <path
       id="path189"
       d="m 29.84122,141.73404 c 0,0.82535 -0.66907,1.49441 -1.49442,1.49441 -0.82535,0 -1.49441,-0.66906 -1.49441,-1.49441 0,-0.82535 0.66906,-1.49442 1.49441,-1.49442 0.82535,0 1.49442,0.66907 1.49442,1.49442 z"
       style="fill:#000000;fill-opacity:1;fill-rule:nonzero;stroke:none"
       transform="matrix(1.3333333,0,0,-1.3333333,20.890667,436.63733)" />
    <path
       id="path190"
       d="m 29.84122,170.08086 c 0,0.82534 -0.66907,1.49441 -1.49442,1.49441 -0.82535,0 -1.49441,-0.66907 -1.49441,-1.49441 0,-0.82535 0.66906,-1.49442 1.49441,-1.49442 0.82535,0 1.49442,0.66907 1.49442,1.49442 z"
       style="fill:#000000;fill-opacity:1;fill-rule:nonzero;stroke:none"
       transform="matrix(1.3333333,0,0,-1.3333333,20.890667,436.63733)" />
    <path
       id="path191"
       d="m 29.84122,255.12128 c 0,0.82534 -0.66907,1.49441 -1.49442,1.49441 -0.82535,0 -1.49441,-0.66907 -1.49441,-1.49441 0,-0.82535 0.66906,-1.49442 1.49441,-1.49442 0.82535,0 1.49442,0.66907 1.49442,1.49442 z"
       style="fill:#000000;fill-opacity:1;fill-rule:nonzero;stroke:none"
       transform="matrix(1.3333333,0,0,-1.3333333,20.890667,436.63733)" />
    <path
       id="path192"
       d="m 58.18803,56.69362 c 0,0.82533 -0.66908,1.49441 -1.49441,1.49441 -0.82535,0 -1.49442,-0.66908 -1.49442,-1.49441 0,-0.82535 0.66907,-1.49442 1.49442,-1.49442 0.82533,0 1.49441,0.66907 1.49441,1.49442 z"
       style="fill:#000000;fill-opacity:1;fill-rule:nonzero;stroke:none"
       transform="matrix(1.3333333,0,0,-1.3333333,20.890667,436.63733)" />
    <path
       id="path193"
       d="m 58.18803,85.04042 c 0,0.82535 -0.66908,1.49442 -1.49441,1.49442 -0.82535,0 -1.49442,-0.66907 -1.49442,-1.49442 0,-0.82535 0.66907,-1.49442 1.49442,-1.49442 0.82533,0 1.49441,0.66907 1.49441,1.49442 z"
       style="fill:#000000;fill-opacity:1;fill-rule:nonzero;stroke:none"
       transform="matrix(1.3333333,0,0,-1.3333333,20.890667,436.63733)" />
    <path
       id="path194"
       d="m 58.18803,113.38724 c 0,0.82533 -0.66908,1.49441 -1.49441,1.49441 -0.82535,0 -1.49442,-0.66908 -1.49442,-1.49441 0,-0.82535 0.66907,-1.49442 1.49442,-1.49442 0.82533,0 1.49441,0.66907 1.49441,1.49442 z"
       style="fill:#000000;fill-opacity:1;fill-rule:nonzero;stroke:none"
       transform="matrix(1.3333333,0,0,-1.3333333,20.890667,436.63733)" />
    <path
       id="path195"
       d="m 58.18803,170.08086 c 0,0.82534 -0.66908,1.49441 -1.49441,1.49441 -0.82535,0 -1.49442,-0.66907 -1.49442,-1.49441 0,-0.82535 0.66907,-1.49442 1.49442,-1.49442 0.82533,0 1.49441,0.66907 1.49441,1.49442 z"
       style="fill:#000000;fill-opacity:1;fill-rule:nonzero;stroke:none"
       transform="matrix(1.3333333,0,0,-1.3333333,20.890667,436.63733)" />
    <path
       id="path196"
       d="m 58.18803,198.42766 c 0,0.82534 -0.66908,1.49441 -1.49441,1.49441 -0.82535,0 -1.49442,-0.66907 -1.49442,-1.49441 0,-0.82535 0.66907,-1.49442 1.49442,-1.49442 0.82533,0 1.49441,0.66907 1.49441,1.49442 z"
       style="fill:#000000;fill-opacity:1;fill-rule:nonzero;stroke:none"
       transform="matrix(1.3333333,0,0,-1.3333333,20.890667,436.63733)" />
    <path
       id="path197"
       d="m 58.18803,226.77448 c 0,0.82534 -0.66908,1.49441 -1.49441,1.49441 -0.82535,0 -1.49442,-0.66907 -1.49442,-1.49441 0,-0.82535 0.66907,-1.49442 1.49442,-1.49442 0.82533,0 1.49441,0.66907 1.49441,1.49442 z"
       style="fill:#000000;fill-opacity:1;fill-rule:nonzero;stroke:none"
       transform="matrix(1.3333333,0,0,-1.3333333,20.890667,436.63733)" />
    <path
       id="path198"
       d="m 58.18803,283.4681 c 0,0.82534 -0.66908,1.49441 -1.49441,1.49441 -0.82535,0 -1.49442,-0.66907 -1.49442,-1.49441 0,-0.82535 0.66907,-1.49442 1.49442,-1.49442 0.82533,0 1.49441,0.66907 1.49441,1.49442 z"
       style="fill:#000000;fill-opacity:1;fill-rule:nonzero;stroke:none"
       transform="matrix(1.3333333,0,0,-1.3333333,20.890667,436.63733)" />
    <path
       id="path199"
       d="m 86.53484,28.3468 c 0,0.82535 -0.66907,1.49442 -1.49442,1.49442 -0.82535,0 -1.49442,-0.66907 -1.49442,-1.49442 0,-0.82535 0.66907,-1.49441 1.49442,-1.49441 0.82535,0 1.49442,0.66906 1.49442,1.49441 z"
       style="fill:#000000;fill-opacity:1;fill-rule:nonzero;stroke:none"
       transform="matrix(1.3333333,0,0,-1.3333333,20.890667,436.63733)" />
    <path
       id="path200"
       d="m 86.53484,56.69362 c 0,0.82533 -0.66907,1.49441 -1.49442,1.49441 -0.82535,0 -1.49442,-0.66908 -1.49442,-1.49441 0,-0.82535 0.66907,-1.49442 1.49442,-1.49442 0.82535,0 1.49442,0.66907 1.49442,1.49442 z"
       style="fill:#000000;fill-opacity:1;fill-rule:nonzero;stroke:none"
       transform="matrix(1.3333333,0,0,-1.3333333,20.890667,436.63733)" />
    <path
       id="path201"
       d="m 86.53484,85.04042 c 0,0.82535 -0.66907,1.49442 -1.49442,1.49442 -0.82535,0 -1.49442,-0.66907 -1.49442,-1.49442 0,-0.82535 0.66907,-1.49442 1.49442,-1.49442 0.82535,0 1.49442,0.66907 1.49442,1.49442 z"
       style="fill:#000000;fill-opacity:1;fill-rule:nonzero;stroke:none"
       transform="matrix(1.3333333,0,0,-1.3333333,20.890667,436.63733)" />
    <path
       id="path202"
       d="m 86.53484,113.38724 c 0,0.82533 -0.66907,1.49441 -1.49442,1.49441 -0.82535,0 -1.49442,-0.66908 -1.49442,-1.49441 0,-0.82535 0.66907,-1.49442 1.49442,-1.49442 0.82535,0 1.49442,0.66907 1.49442,1.49442 z"
       style="fill:#000000;fill-opacity:1;fill-rule:nonzero;stroke:none"
       transform="matrix(1.3333333,0,0,-1.3333333,20.890667,436.63733)" />
    <path
       id="path203"
       d="m 86.53484,141.73404 c 0,0.82535 -0.66907,1.49441 -1.49442,1.49441 -0.82535,0 -1.49442,-0.66906 -1.49442,-1.49441 0,-0.82535 0.66907,-1.49442 1.49442,-1.49442 0.82535,0 1.49442,0.66907 1.49442,1.49442 z"
       style="fill:#000000;fill-opacity:1;fill-rule:nonzero;stroke:none"
       transform="matrix(1.3333333,0,0,-1.3333333,20.890667,436.63733)" />
    <path
       id="path204"
       d="m 86.53484,226.77448 c 0,0.82534 -0.66907,1.49441 -1.49442,1.49441 -0.82535,0 -1.49442,-0.66907 -1.49442,-1.49441 0,-0.82535 0.66907,-1.49442 1.49442,-1.49442 0.82535,0 1.49442,0.66907 1.49442,1.49442 z"
       style="fill:#000000;fill-opacity:1;fill-rule:nonzero;stroke:none"
       transform="matrix(1.3333333,0,0,-1.3333333,20.890667,436.63733)" />
    <path
       id="path205"
       d="m 86.53484,283.4681 c 0,0.82534 -0.66907,1.49441 -1.49442,1.49441 -0.82535,0 -1.49442,-0.66907 -1.49442,-1.49441 0,-0.82535 0.66907,-1.49442 1.49442,-1.49442 0.82535,0 1.49442,0.66907 1.49442,1.49442 z"
       style="fill:#000000;fill-opacity:1;fill-rule:nonzero;stroke:none"
       transform="matrix(1.3333333,0,0,-1.3333333,20.890667,436.63733)" />
    <path
       id="path206"
       d="m 86.53484,311.8149 c 0,0.82534 -0.66907,1.49441 -1.49442,1.49441 -0.82535,0 -1.49442,-0.66907 -1.49442,-1.49441 0,-0.82535 0.66907,-1.49442 1.49442,-1.49442 0.82535,0 1.49442,0.66907 1.49442,1.49442 z"
       style="fill:#000000;fill-opacity:1;fill-rule:nonzero;stroke:none"
       transform="matrix(1.3333333,0,0,-1.3333333,20.890667,436.63733)" />
    <path
       id="path207"
       d="m 114.88165,28.3468 c 0,0.82535 -0.66908,1.49442 -1.49441,1.49442 -0.82535,0 -1.49442,-0.66907 -1.49442,-1.49442 0,-0.82535 0.66907,-1.49441 1.49442,-1.49441 0.82533,0 1.49441,0.66906 1.49441,1.49441 z"
       style="fill:#000000;fill-opacity:1;fill-rule:nonzero;stroke:none"
       transform="matrix(1.3333333,0,0,-1.3333333,20.890667,436.63733)" />
    <path
       id="path208"
       d="m 114.88165,56.69362 c 0,0.82533 -0.66908,1.49441 -1.49441,1.49441 -0.82535,0 -1.49442,-0.66908 -1.49442,-1.49441 0,-0.82535 0.66907,-1.49442 1.49442,-1.49442 0.82533,0 1.49441,0.66907 1.49441,1.49442 z"
       style="fill:#000000;fill-opacity:1;fill-rule:nonzero;stroke:none"
       transform="matrix(1.3333333,0,0,-1.3333333,20.890667,436.63733)" />
    <path
       id="path209"
       d="m 114.88165,85.04042 c 0,0.82535 -0.66908,1.49442 -1.49441,1.49442 -0.82535,0 -1.49442,-0.66907 -1.49442,-1.49442 0,-0.82535 0.66907,-1.49442 1.49442,-1.49442 0.82533,0 1.49441,0.66907 1.49441,1.49442 z"
       style="fill:#000000;fill-opacity:1;fill-rule:nonzero;stroke:none"
       transform="matrix(1.3333333,0,0,-1.3333333,20.890667,436.63733)" />
    <path
       id="path210"
       d="m 114.88165,141.73404 c 0,0.82535 -0.66908,1.49441 -1.49441,1.49441 -0.82535,0 -1.49442,-0.66906 -1.49442,-1.49441 0,-0.82535 0.66907,-1.49442 1.49442,-1.49442 0.82533,0 1.49441,0.66907 1.49441,1.49442 z"
       style="fill:#000000;fill-opacity:1;fill-rule:nonzero;stroke:none"
       transform="matrix(1.3333333,0,0,-1.3333333,20.890667,436.63733)" />
    <path
       id="path211"
       d="m 114.88165,170.08086 c 0,0.82534 -0.66908,1.49441 -1.49441,1.49441 -0.82535,0 -1.49442,-0.66907 -1.49442,-1.49441 0,-0.82535 0.66907,-1.49442 1.49442,-1.49442 0.82533,0 1.49441,0.66907 1.49441,1.49442 z"
       style="fill:#000000;fill-opacity:1;fill-rule:nonzero;stroke:none"
       transform="matrix(1.3333333,0,0,-1.3333333,20.890667,436.63733)" />
    <path
       id="path212"
       d="m 114.88165,255.12128 c 0,0.82534 -0.66908,1.49441 -1.49441,1.49441 -0.82535,0 -1.49442,-0.66907 -1.49442,-1.49441 0,-0.82535 0.66907,-1.49442 1.49442,-1.49442 0.82533,0 1.49441,0.66907 1.49441,1.49442 z"
       style="fill:#000000;fill-opacity:1;fill-rule:nonzero;stroke:none"
       transform="matrix(1.3333333,0,0,-1.3333333,20.890667,436.63733)" />
    <path
       id="path213"
       d="m 114.88165,311.8149 c 0,0.82534 -0.66908,1.49441 -1.49441,1.49441 -0.82535,0 -1.49442,-0.66907 -1.49442,-1.49441 0,-0.82535 0.66907,-1.49442 1.49442,-1.49442 0.82533,0 1.49441,0.66907 1.49441,1.49442 z"
       style="fill:#000000;fill-opacity:1;fill-rule:nonzero;stroke:none"
       transform="matrix(1.3333333,0,0,-1.3333333,20.890667,436.63733)" />
    <path
       id="path214"
       d="m 143.22845,0 c 0,0.82533 -0.66906,1.49442 -1.49441,1.49442 -0.82535,0 -1.49442,-0.66909 -1.49442,-1.49442 0,-0.82533 0.66907,-1.49442 1.49442,-1.49442 0.82535,0 1.49441,0.66909 1.49441,1.49442 z"
       style="fill:#000000;fill-opacity:1;fill-rule:nonzero;stroke:none"
       transform="matrix(1.3333333,0,0,-1.3333333,20.890667,436.63733)" />
    <path
       id="path215"
       d="m 143.22845,28.3468 c 0,0.82535 -0.66906,1.49442 -1.49441,1.49442 -0.82535,0 -1.49442,-0.66907 -1.49442,-1.49442 0,-0.82535 0.66907,-1.49441 1.49442,-1.49441 0.82535,0 1.49441,0.66906 1.49441,1.49441 z"
       style="fill:#000000;fill-opacity:1;fill-rule:nonzero;stroke:none"
       transform="matrix(1.3333333,0,0,-1.3333333,20.890667,436.63733)" />
    <path
       id="path216"
       d="m 143.22845,56.69362 c 0,0.82533 -0.66906,1.49441 -1.49441,1.49441 -0.82535,0 -1.49442,-0.66908 -1.49442,-1.49441 0,-0.82535 0.66907,-1.49442 1.49442,-1.49442 0.82535,0 1.49441,0.66907 1.49441,1.49442 z"
       style="fill:#000000;fill-opacity:1;fill-rule:nonzero;stroke:none"
       transform="matrix(1.3333333,0,0,-1.3333333,20.890667,436.63733)" />
    <path
       id="path217"
       d="m 143.22845,85.04042 c 0,0.82535 -0.66906,1.49442 -1.49441,1.49442 -0.82535,0 -1.49442,-0.66907 -1.49442,-1.49442 0,-0.82535 0.66907,-1.49442 1.49442,-1.49442 0.82535,0 1.49441,0.66907 1.49441,1.49442 z"
       style="fill:#000000;fill-opacity:1;fill-rule:nonzero;stroke:none"
       transform="matrix(1.3333333,0,0,-1.3333333,20.890667,436.63733)" />
    <path
       id="path218"
       d="m 143.22845,113.38724 c 0,0.82533 -0.66906,1.49441 -1.49441,1.49441 -0.82535,0 -1.49442,-0.66908 -1.49442,-1.49441 0,-0.82535 0.66907,-1.49442 1.49442,-1.49442 0.82535,0 1.49441,0.66907 1.49441,1.49442 z"
       style="fill:#000000;fill-opacity:1;fill-rule:nonzero;stroke:none"
       transform="matrix(1.3333333,0,0,-1.3333333,20.890667,436.63733)" />
    <path
       id="path219"
       d="m 143.22845,141.73404 c 0,0.82535 -0.66906,1.49441 -1.49441,1.49441 -0.82535,0 -1.49442,-0.66906 -1.49442,-1.49441 0,-0.82535 0.66907,-1.49442 1.49442,-1.49442 0.82535,0 1.49441,0.66907 1.49441,1.49442 z"
       style="fill:#000000;fill-opacity:1;fill-rule:nonzero;stroke:none"
       transform="matrix(1.3333333,0,0,-1.3333333,20.890667,436.63733)" />
    <path
       id="path220"
       d="m 143.22845,226.77448 c 0,0.82534 -0.66906,1.49441 -1.49441,1.49441 -0.82535,0 -1.49442,-0.66907 -1.49442,-1.49441 0,-0.82535 0.66907,-1.49442 1.49442,-1.49442 0.82535,0 1.49441,0.66907 1.49441,1.49442 z"
       style="fill:#000000;fill-opacity:1;fill-rule:nonzero;stroke:none"
       transform="matrix(1.3333333,0,0,-1.3333333,20.890667,436.63733)" />
    <path
       id="path221"
       d="m 143.22845,255.12128 c 0,0.82534 -0.66906,1.49441 -1.49441,1.49441 -0.82535,0 -1.49442,-0.66907 -1.49442,-1.49441 0,-0.82535 0.66907,-1.49442 1.49442,-1.49442 0.82535,0 1.49441,0.66907 1.49441,1.49442 z"
       style="fill:#000000;fill-opacity:1;fill-rule:nonzero;stroke:none"
       transform="matrix(1.3333333,0,0,-1.3333333,20.890667,436.63733)" />
    <path
       id="path222"
       d="m 143.22845,283.4681 c 0,0.82534 -0.66906,1.49441 -1.49441,1.49441 -0.82535,0 -1.49442,-0.66907 -1.49442,-1.49441 0,-0.82535 0.66907,-1.49442 1.49442,-1.49442 0.82535,0 1.49441,0.66907 1.49441,1.49442 z"
       style="fill:#000000;fill-opacity:1;fill-rule:nonzero;stroke:none"
       transform="matrix(1.3333333,0,0,-1.3333333,20.890667,436.63733)" />
    <path
       id="path223"
       d="m 171.57527,28.3468 c 0,0.82535 -0.66907,1.49442 -1.49441,1.49442 -0.82535,0 -1.49442,-0.66907 -1.49442,-1.49442 0,-0.82535 0.66907,-1.49441 1.49442,-1.49441 0.82534,0 1.49441,0.66906 1.49441,1.49441 z"
       style="fill:#000000;fill-opacity:1;fill-rule:nonzero;stroke:none"
       transform="matrix(1.3333333,0,0,-1.3333333,20.890667,436.63733)" />
    <path
       id="path224"
       d="m 171.57527,56.69362 c 0,0.82533 -0.66907,1.49441 -1.49441,1.49441 -0.82535,0 -1.49442,-0.66908 -1.49442,-1.49441 0,-0.82535 0.66907,-1.49442 1.49442,-1.49442 0.82534,0 1.49441,0.66907 1.49441,1.49442 z"
       style="fill:#000000;fill-opacity:1;fill-rule:nonzero;stroke:none"
       transform="matrix(1.3333333,0,0,-1.3333333,20.890667,436.63733)" />
    <path
       id="path225"
       d="m 171.57527,85.04042 c 0,0.82535 -0.66907,1.49442 -1.49441,1.49442 -0.82535,0 -1.49442,-0.66907 -1.49442,-1.49442 0,-0.82535 0.66907,-1.49442 1.49442,-1.49442 0.82534,0 1.49441,0.66907 1.49441,1.49442 z"
       style="fill:#000000;fill-opacity:1;fill-rule:nonzero;stroke:none"
       transform="matrix(1.3333333,0,0,-1.3333333,20.890667,436.63733)" />
    <path
       id="path226"
       d="m 171.57527,141.73404 c 0,0.82535 -0.66907,1.49441 -1.49441,1.49441 -0.82535,0 -1.49442,-0.66906 -1.49442,-1.49441 0,-0.82535 0.66907,-1.49442 1.49442,-1.49442 0.82534,0 1.49441,0.66907 1.49441,1.49442 z"
       style="fill:#000000;fill-opacity:1;fill-rule:nonzero;stroke:none"
       transform="matrix(1.3333333,0,0,-1.3333333,20.890667,436.63733)" />
    <path
       id="path227"
       d="m 171.57527,170.08086 c 0,0.82534 -0.66907,1.49441 -1.49441,1.49441 -0.82535,0 -1.49442,-0.66907 -1.49442,-1.49441 0,-0.82535 0.66907,-1.49442 1.49442,-1.49442 0.82534,0 1.49441,0.66907 1.49441,1.49442 z"
       style="fill:#000000;fill-opacity:1;fill-rule:nonzero;stroke:none"
       transform="matrix(1.3333333,0,0,-1.3333333,20.890667,436.63733)" />
    <path
       id="path228"
       d="m 171.57527,255.12128 c 0,0.82534 -0.66907,1.49441 -1.49441,1.49441 -0.82535,0 -1.49442,-0.66907 -1.49442,-1.49441 0,-0.82535 0.66907,-1.49442 1.49442,-1.49442 0.82534,0 1.49441,0.66907 1.49441,1.49442 z"
       style="fill:#000000;fill-opacity:1;fill-rule:nonzero;stroke:none"
       transform="matrix(1.3333333,0,0,-1.3333333,20.890667,436.63733)" />
    <path
       id="path229"
       d="m 171.57527,311.8149 c 0,0.82534 -0.66907,1.49441 -1.49441,1.49441 -0.82535,0 -1.49442,-0.66907 -1.49442,-1.49441 0,-0.82535 0.66907,-1.49442 1.49442,-1.49442 0.82534,0 1.49441,0.66907 1.49441,1.49442 z"
       style="fill:#000000;fill-opacity:1;fill-rule:nonzero;stroke:none"
       transform="matrix(1.3333333,0,0,-1.3333333,20.890667,436.63733)" />
    <path
       id="path230"
       d="m 199.92207,28.3468 c 0,0.82535 -0.66907,1.49442 -1.49441,1.49442 -0.82535,0 -1.49442,-0.66907 -1.49442,-1.49442 0,-0.82535 0.66907,-1.49441 1.49442,-1.49441 0.82534,0 1.49441,0.66906 1.49441,1.49441 z"
       style="fill:#000000;fill-opacity:1;fill-rule:nonzero;stroke:none"
       transform="matrix(1.3333333,0,0,-1.3333333,20.890667,436.63733)" />
    <path
       id="path231"
       d="m 199.92207,56.69362 c 0,0.82533 -0.66907,1.49441 -1.49441,1.49441 -0.82535,0 -1.49442,-0.66908 -1.49442,-1.49441 0,-0.82535 0.66907,-1.49442 1.49442,-1.49442 0.82534,0 1.49441,0.66907 1.49441,1.49442 z"
       style="fill:#000000;fill-opacity:1;fill-rule:nonzero;stroke:none"
       transform="matrix(1.3333333,0,0,-1.3333333,20.890667,436.63733)" />
    <path
       id="path232"
       d="m 199.92207,85.04042 c 0,0.82535 -0.66907,1.49442 -1.49441,1.49442 -0.82535,0 -1.49442,-0.66907 -1.49442,-1.49442 0,-0.82535 0.66907,-1.49442 1.49442,-1.49442 0.82534,0 1.49441,0.66907 1.49441,1.49442 z"
       style="fill:#000000;fill-opacity:1;fill-rule:nonzero;stroke:none"
       transform="matrix(1.3333333,0,0,-1.3333333,20.890667,436.63733)" />
    <path
       id="path233"
       d="m 199.92207,113.38724 c 0,0.82533 -0.66907,1.49441 -1.49441,1.49441 -0.82535,0 -1.49442,-0.66908 -1.49442,-1.49441 0,-0.82535 0.66907,-1.49442 1.49442,-1.49442 0.82534,0 1.49441,0.66907 1.49441,1.49442 z"
       style="fill:#000000;fill-opacity:1;fill-rule:nonzero;stroke:none"
       transform="matrix(1.3333333,0,0,-1.3333333,20.890667,436.63733)" />
    <path
       id="path234"
       d="m 199.92207,141.73404 c 0,0.82535 -0.66907,1.49441 -1.49441,1.49441 -0.82535,0 -1.49442,-0.66906 -1.49442,-1.49441 0,-0.82535 0.66907,-1.49442 1.49442,-1.49442 0.82534,0 1.49441,0.66907 1.49441,1.49442 z"
       style="fill:#000000;fill-opacity:1;fill-rule:nonzero;stroke:none"
       transform="matrix(1.3333333,0,0,-1.3333333,20.890667,436.63733)" />
    <path
       id="path235"
       d="m 199.92207,226.77448 c 0,0.82534 -0.66907,1.49441 -1.49441,1.49441 -0.82535,0 -1.49442,-0.66907 -1.49442,-1.49441 0,-0.82535 0.66907,-1.49442 1.49442,-1.49442 0.82534,0 1.49441,0.66907 1.49441,1.49442 z"
       style="fill:#000000;fill-opacity:1;fill-rule:nonzero;stroke:none"
       transform="matrix(1.3333333,0,0,-1.3333333,20.890667,436.63733)" />
    <path
       id="path236"
       d="m 199.92207,283.4681 c 0,0.82534 -0.66907,1.49441 -1.49441,1.49441 -0.82535,0 -1.49442,-0.66907 -1.49442,-1.49441 0,-0.82535 0.66907,-1.49442 1.49442,-1.49442 0.82534,0 1.49441,0.66907 1.49441,1.49442 z"
       style="fill:#000000;fill-opacity:1;fill-rule:nonzero;stroke:none"
       transform="matrix(1.3333333,0,0,-1.3333333,20.890667,436.63733)" />
    <path
       id="path237"
       d="m 199.92207,311.8149 c 0,0.82534 -0.66907,1.49441 -1.49441,1.49441 -0.82535,0 -1.49442,-0.66907 -1.49442,-1.49441 0,-0.82535 0.66907,-1.49442 1.49442,-1.49442 0.82534,0 1.49441,0.66907 1.49441,1.49442 z"
       style="fill:#000000;fill-opacity:1;fill-rule:nonzero;stroke:none"
       transform="matrix(1.3333333,0,0,-1.3333333,20.890667,436.63733)" />
    <path
       id="path238"
       d="m 228.26889,56.69362 c 0,0.82533 -0.66907,1.49441 -1.49441,1.49441 -0.82535,0 -1.49442,-0.66908 -1.49442,-1.49441 0,-0.82535 0.66907,-1.49442 1.49442,-1.49442 0.82534,0 1.49441,0.66907 1.49441,1.49442 z"
       style="fill:#000000;fill-opacity:1;fill-rule:nonzero;stroke:none"
       transform="matrix(1.3333333,0,0,-1.3333333,20.890667,436.63733)" />
    <path
       id="path239"
       d="m 228.26889,85.04042 c 0,0.82535 -0.66907,1.49442 -1.49441,1.49442 -0.82535,0 -1.49442,-0.66907 -1.49442,-1.49442 0,-0.82535 0.66907,-1.49442 1.49442,-1.49442 0.82534,0 1.49441,0.66907 1.49441,1.49442 z"
       style="fill:#000000;fill-opacity:1;fill-rule:nonzero;stroke:none"
       transform="matrix(1.3333333,0,0,-1.3333333,20.890667,436.63733)" />
    <path
       id="path240"
       d="m 228.26889,113.38724 c 0,0.82533 -0.66907,1.49441 -1.49441,1.49441 -0.82535,0 -1.49442,-0.66908 -1.49442,-1.49441 0,-0.82535 0.66907,-1.49442 1.49442,-1.49442 0.82534,0 1.49441,0.66907 1.49441,1.49442 z"
       style="fill:#000000;fill-opacity:1;fill-rule:nonzero;stroke:none"
       transform="matrix(1.3333333,0,0,-1.3333333,20.890667,436.63733)" />
    <path
       id="path241"
       d="m 228.26889,170.08086 c 0,0.82534 -0.66907,1.49441 -1.49441,1.49441 -0.82535,0 -1.49442,-0.66907 -1.49442,-1.49441 0,-0.82535 0.66907,-1.49442 1.49442,-1.49442 0.82534,0 1.49441,0.66907 1.49441,1.49442 z"
       style="fill:#000000;fill-opacity:1;fill-rule:nonzero;stroke:none"
       transform="matrix(1.3333333,0,0,-1.3333333,20.890667,436.63733)" />
    <path
       id="path242"
       d="m 228.26889,198.42766 c 0,0.82534 -0.66907,1.49441 -1.49441,1.49441 -0.82535,0 -1.49442,-0.66907 -1.49442,-1.49441 0,-0.82535 0.66907,-1.49442 1.49442,-1.49442 0.82534,0 1.49441,0.66907 1.49441,1.49442 z"
       style="fill:#000000;fill-opacity:1;fill-rule:nonzero;stroke:none"
       transform="matrix(1.3333333,0,0,-1.3333333,20.890667,436.63733)" />
    <path
       id="path243"
       d="m 228.26889,226.77448 c 0,0.82534 -0.66907,1.49441 -1.49441,1.49441 -0.82535,0 -1.49442,-0.66907 -1.49442,-1.49441 0,-0.82535 0.66907,-1.49442 1.49442,-1.49442 0.82534,0 1.49441,0.66907 1.49441,1.49442 z"
       style="fill:#000000;fill-opacity:1;fill-rule:nonzero;stroke:none"
       transform="matrix(1.3333333,0,0,-1.3333333,20.890667,436.63733)" />
    <path
       id="path244"
       d="m 228.26889,283.4681 c 0,0.82534 -0.66907,1.49441 -1.49441,1.49441 -0.82535,0 -1.49442,-0.66907 -1.49442,-1.49441 0,-0.82535 0.66907,-1.49442 1.49442,-1.49442 0.82534,0 1.49441,0.66907 1.49441,1.49442 z"
       style="fill:#000000;fill-opacity:1;fill-rule:nonzero;stroke:none"
       transform="matrix(1.3333333,0,0,-1.3333333,20.890667,436.63733)" />
    <path
       id="path245"
       d="m 256.61569,85.04042 c 0,0.82535 -0.66907,1.49442 -1.49441,1.49442 -0.82535,0 -1.49442,-0.66907 -1.49442,-1.49442 0,-0.82535 0.66907,-1.49442 1.49442,-1.49442 0.82534,0 1.49441,0.66907 1.49441,1.49442 z"
       style="fill:#000000;fill-opacity:1;fill-rule:nonzero;stroke:none"
       transform="matrix(1.3333333,0,0,-1.3333333,20.890667,436.63733)" />
    <path
       id="path246"
       d="m 256.61569,113.38724 c 0,0.82533 -0.66907,1.49441 -1.49441,1.49441 -0.82535,0 -1.49442,-0.66908 -1.49442,-1.49441 0,-0.82535 0.66907,-1.49442 1.49442,-1.49442 0.82534,0 1.49441,0.66907 1.49441,1.49442 z"
       style="fill:#000000;fill-opacity:1;fill-rule:nonzero;stroke:none"
       transform="matrix(1.3333333,0,0,-1.3333333,20.890667,436.63733)" />
    <path
       id="path247"
       d="m 256.61569,141.73404 c 0,0.82535 -0.66907,1.49441 -1.49441,1.49441 -0.82535,0 -1.49442,-0.66906 -1.49442,-1.49441 0,-0.82535 0.66907,-1.49442 1.49442,-1.49442 0.82534,0 1.49441,0.66907 1.49441,1.49442 z"
       style="fill:#000000;fill-opacity:1;fill-rule:nonzero;stroke:none"
       transform="matrix(1.3333333,0,0,-1.3333333,20.890667,436.63733)" />
    <path
       id="path248"
       d="m 256.61569,170.08086 c 0,0.82534 -0.66907,1.49441 -1.49441,1.49441 -0.82535,0 -1.49442,-0.66907 -1.49442,-1.49441 0,-0.82535 0.66907,-1.49442 1.49442,-1.49442 0.82534,0 1.49441,0.66907 1.49441,1.49442 z"
       style="fill:#000000;fill-opacity:1;fill-rule:nonzero;stroke:none"
       transform="matrix(1.3333333,0,0,-1.3333333,20.890667,436.63733)" />
    <path
       id="path249"
       d="m 256.61569,255.12128 c 0,0.82534 -0.66907,1.49441 -1.49441,1.49441 -0.82535,0 -1.49442,-0.66907 -1.49442,-1.49441 0,-0.82535 0.66907,-1.49442 1.49442,-1.49442 0.82534,0 1.49441,0.66907 1.49441,1.49442 z"
       style="fill:#000000;fill-opacity:1;fill-rule:nonzero;stroke:none"
       transform="matrix(1.3333333,0,0,-1.3333333,20.890667,436.63733)" />
    <path
       id="path250"
       d="m 284.96251,141.73404 c 0,0.82535 -0.66907,1.49441 -1.49441,1.49441 -0.82535,0 -1.49442,-0.66906 -1.49442,-1.49441 0,-0.82535 0.66907,-1.49442 1.49442,-1.49442 0.82534,0 1.49441,0.66907 1.49441,1.49442 z"
       style="fill:#000000;fill-opacity:1;fill-rule:nonzero;stroke:none"
       transform="matrix(1.3333333,0,0,-1.3333333,20.890667,436.63733)" />
    <path
       id="path251"
       d="m 284.96251,170.08086 c 0,0.82534 -0.66907,1.49441 -1.49441,1.49441 -0.82535,0 -1.49442,-0.66907 -1.49442,-1.49441 0,-0.82535 0.66907,-1.49442 1.49442,-1.49442 0.82534,0 1.49441,0.66907 1.49441,1.49442 z"
       style="fill:#000000;fill-opacity:1;fill-rule:nonzero;stroke:none"
       transform="matrix(1.3333333,0,0,-1.3333333,20.890667,436.63733)" />
    <path
       id="path252"
       d="m 284.96251,198.42766 c 0,0.82534 -0.66907,1.49441 -1.49441,1.49441 -0.82535,0 -1.49442,-0.66907 -1.49442,-1.49441 0,-0.82535 0.66907,-1.49442 1.49442,-1.49442 0.82534,0 1.49441,0.66907 1.49441,1.49442 z"
       style="fill:#000000;fill-opacity:1;fill-rule:nonzero;stroke:none"
       transform="matrix(1.3333333,0,0,-1.3333333,20.890667,436.63733)" />
  </g>
</svg>
